<svg preserveAspectRatio="none" width="100%" height="100%" overflow="visible" style="display: block;" viewBox="0 0 26.6601 40.0543" fill="none" xmlns="http://www.w3.org/2000/svg">
<g id="Group">
<path id="Vector" d="M18.7571 13.8654L26.4647 1.87567C26.9855 1.06551 26.4039 0 25.4407 0H15.7303C15.316 0 14.9303 0.210598 14.7062 0.559039L4.92703 15.7711C4.40617 16.5812 4.98789 17.6467 5.95107 17.6467H12.7022L4.15215 31.327C4.08018 31.4422 3.95391 31.5122 3.8181 31.5122H0.394009C0.154309 31.5122 -0.0298473 31.7245 0.00402679 31.9618L1.1117 39.7157C1.15269 40.0029 1.47954 40.1487 1.72065 39.9874L13.3116 32.2335C13.6352 32.0169 13.482 31.5122 13.0926 31.5122H9.71422C9.36328 31.5122 9.18757 31.0878 9.43572 30.8398L24.3318 15.9435C25.0987 15.1766 24.5556 13.8653 23.4711 13.8653L18.7571 13.8654Z" fill="var(--fill-0, #FED402)"/>
<path id="Vector_2" d="M23.4711 13.8653H20.2002C20.3433 14.505 20.1898 15.2162 19.6423 15.7635L7.1999 28.206C6.57882 28.827 7.01871 29.8889 7.89701 29.8889C8.87161 29.8889 9.25518 31.1522 8.44518 31.6941L0.705622 36.8716L1.11188 39.7156C1.15287 40.0028 1.47972 40.1486 1.72083 39.9873L13.3118 32.2334C13.6354 32.0168 13.4822 31.5121 13.0927 31.5121H9.71424C9.3633 31.5121 9.18759 31.0878 9.43574 30.8397L24.3319 15.9434C25.0988 15.1765 24.5556 13.8653 23.4711 13.8653Z" fill="var(--fill-0, #FAC600)"/>
</g>
</svg>
