<svg preserveAspectRatio="none" width="100%" height="100%" overflow="visible" style="display: block;" viewBox="0 0 36.0641 14.5567" fill="none" xmlns="http://www.w3.org/2000/svg">
<g id="Group">
<path id="Vector" d="M29.9268 7.71947H26.8953L25.6789 9.05004L24.1813 10.1795V12.5761L25.6789 13.2256L26.7049 14.5567H30.1172L30.51 13.2256V9.05004L29.9268 7.71947Z" fill="var(--fill-0, #F3F0F3)"/>
<path id="Vector_2" d="M35.3421 4.17557L35.009 3.44309H31.3955L30.5101 4.17557L29.6467 4.59938V8.18387L30.5101 9.04995H35.3421L36.0641 8.5018V4.93178L35.3421 4.17557Z" fill="var(--fill-0, #F3F0F3)"/>
<path id="Vector_3" d="M29.818 2.25609H26.4715L25.6789 4.17549L24.2977 5.26296V8.3578L25.6789 9.04987H30.51V4.17549L29.818 2.25609Z" fill="var(--fill-0, #F31F2E)"/>
<path id="Vector_4" d="M20.8478 4.17559L19.4161 5.02526V8.27664L20.8478 9.04997L21.7842 10.1321H25.1591L25.6789 9.04997V4.17559H20.8478Z" fill="var(--fill-0, #F3F0F3)"/>
<path id="Vector_5" d="M20.8478 9.04985L19.4161 9.97575V12.7397L20.8478 13.2254V14.1822H25.5578L25.6789 13.2254V9.04985H20.8478Z" fill="var(--fill-0, #F31F2E)"/>
<path id="Vector_6" d="M20.2236 7.99102H16.9535L16.0157 9.05008L15.0762 9.84415V12.8115L16.0157 13.2256V14.4464H20.4458L20.8478 13.2256V9.05008L20.2236 7.99102Z" fill="var(--fill-0, #F3F0F3)"/>
<path id="Vector_7" d="M15.2786 7.71947H12.2399L11.1846 9.05004L9.95603 10.4725V12.3732L11.1846 13.2256V14.5567H15.2548L16.0157 13.2256V9.05004L15.2786 7.71947Z" fill="var(--fill-0, #F31F2E)"/>
<path id="Vector_8" d="M16.0157 4.17559H11.1846L9.83171 5.00682V7.7194L11.1846 9.04997H16.0157L17.962 7.99092V5.54111L16.0157 4.17559Z" fill="var(--fill-0, #F3F0F3)"/>
<path id="Vector_9" d="M6.35347 4.17559H1.52144H1.01797e-05V9.04997H1.52144H6.35347L7.49053 7.99092V5.2898L6.35347 4.17559Z" fill="var(--fill-0, #F3F0F3)"/>
<g id="Group_2">
<path id="Vector_10" d="M16.0157 0H11.1846L10.0381 0.786307V3.58069L11.1846 4.17552H16.0157L17.1925 3.07569V0.954581L16.0157 0Z" fill="var(--fill-0, #F31F2E)"/>
<path id="Vector_11" d="M25.6789 0H20.8478L19.7921 0.82425V3.67829L20.8478 4.17552H25.6789L26.9173 3.50119V0.971434L25.6789 0Z" fill="var(--fill-0, #F31F2E)"/>
</g>
</g>
</svg>
