<svg preserveAspectRatio="none" width="100%" height="100%" overflow="visible" style="display: block;" viewBox="0 0 1926 426" fill="none" xmlns="http://www.w3.org/2000/svg">
<g id="Mask group">
<mask id="mask0_15584_16311" style="mask-type:alpha" maskUnits="userSpaceOnUse" x="0" y="0" width="1926" height="426">
<path id="Union" d="M1827 325.773C1890.38 335.038 1926 345.468 1926 356.5C1926 394.884 1494.85 426 963 426C431.15 426 0 394.884 0 356.5C0 345.468 35.6153 335.038 99 325.773V0H1827V325.773Z" fill="var(--fill-0, #64D9A9)"/>
</mask>
<g mask="url(#mask0_15584_16311)">
<rect id="Rectangle 9107" x="99" width="1728" height="516" fill="var(--fill-0, #BA0E0E)"/>
<path id="Vector" opacity="0.15" fill-rule="evenodd" clip-rule="evenodd" d="M960.964 853H985.538L979.677 754.394L1002.24 734.881C1104.23 747.093 1195.55 758.13 1297.4 770.641L1271.6 681.124C1267.45 665.368 1273.3 648.246 1284.88 638.661L1581 385.46L1519.63 355.059C1492.73 344.918 1500.3 329.034 1509.89 290.627L1555.01 117.571L1383.18 155.616C1366.33 158.306 1355.18 147.055 1352.73 136.423L1330.48 54.9972L1194.52 215.329C1175.19 241.012 1136.09 241.012 1148.29 181.619L1206.39 -143.165L1128.49 -100.616C1106.55 -87.8284 1084.78 -85.6934 1072.37 -108.644L962.99 -320L853.568 -108.686C841.384 -85.7361 819.446 -87.807 797.632 -100.616L719.737 -143.165L777.873 181.576C789.911 241.033 750.808 241.033 731.485 215.329L595.517 54.9972L573.392 136.423C570.756 147.055 559.818 158.306 542.943 155.658L370.965 117.571L416.087 290.585C425.821 328.97 433.397 344.918 406.498 355.102L345 385.46L641.116 638.618C652.864 648.182 658.862 665.411 654.69 681.124L628.725 770.641C730.572 758.152 821.895 747.157 923.887 734.881L946.448 754.394L936.577 853H960.985H960.964Z" fill="var(--fill-0, white)"/>
</g>
</g>
</svg>
