<svg preserveAspectRatio="none" width="100%" height="100%" overflow="visible" style="display: block;" viewBox="0 0 33.6333 12.658" fill="none" xmlns="http://www.w3.org/2000/svg">
<g id="Group">
<path id="Vector" d="M13.9038 8.09329L11.2636 10.7336C11.7152 10.9002 12.0514 11.3042 12.1204 11.794L14.9644 8.95011C14.4744 8.88106 14.0703 8.54484 13.9038 8.09329Z" fill="var(--fill-0, #8AC9FE)"/>
<path id="Vector_2" d="M20.0976 8.4552C19.9197 8.22906 19.8126 7.94473 19.8126 7.63535C19.8126 7.44465 19.8538 7.26361 19.9264 7.09948H16.366C16.4387 7.26361 16.4798 7.44465 16.4798 7.63535C16.4798 7.94473 16.3727 8.22906 16.1949 8.4552H20.0976Z" fill="var(--fill-0, #8AC9FE)"/>
<path id="Vector_3" d="M9.66385 12.6579C9.54536 12.4592 9.47603 12.2278 9.47603 11.9801C9.47603 11.7323 9.54536 11.501 9.66394 11.3022H1.73189e-05C0.0960925 11.5086 0.151316 11.7378 0.151316 11.9801C0.151316 12.2224 0.0960925 12.4515 1.73189e-05 12.6579H9.66385Z" fill="var(--fill-0, #8AC9FE)"/>
<path id="Vector_4" d="M26.4797 1.19736L21.3527 6.32441C21.8389 6.40232 22.2372 6.74387 22.3962 7.19822L27.3725 2.22192C26.9428 2.02968 26.6125 1.6555 26.4797 1.19736Z" fill="var(--fill-0, #8AC9FE)"/>
<path id="Vector_5" d="M32.9554 0H29.4564C29.5744 0.224055 29.642 0.478568 29.642 0.748898C29.642 0.963553 29.5989 1.16818 29.5225 1.35572H32.9554C33.3299 1.35572 33.6333 1.05222 33.6333 0.677859C33.6333 0.3035 33.3299 0 32.9554 0Z" fill="var(--fill-0, #8AC9FE)"/>
</g>
</svg>
