<svg preserveAspectRatio="none" width="100%" height="100%" overflow="visible" style="display: block;" viewBox="0 0 11.2078 18.8367" fill="none" xmlns="http://www.w3.org/2000/svg">
<path id="Vector" d="M9.81423 18.2274L8.03944 17.1773C7.80051 17.036 7.76735 16.7015 7.9765 16.5191C9.99173 14.7617 11.2522 12.1608 11.2066 9.26631C11.1275 4.2597 7.07532 0.149946 2.07012 0.0040903C1.36034 -0.0165793 0.667618 0.0414591 0 0.169798C4.32626 0.999153 7.62336 4.81253 7.65209 9.35763C7.66598 11.5588 6.92456 13.586 5.67201 15.196C4.91564 16.1682 5.16146 17.578 6.22156 18.2053L6.2587 18.2272C6.54247 18.3952 6.42732 18.8265 6.10233 18.8359L9.64723 18.8367C9.98063 18.8369 10.1011 18.397 9.81423 18.2274Z" fill="var(--fill-0, #F8616C)"/>
</svg>
