<svg preserveAspectRatio="none" width="100%" height="100%" overflow="visible" style="display: block;" viewBox="0 0 8.88822 1.77762" fill="none" xmlns="http://www.w3.org/2000/svg">
<g id="Group">
<path id="Vector" d="M0.888795 1.77762C1.37966 1.77762 1.77759 1.3797 1.77759 0.888829C1.77759 0.397961 1.37966 3.40135e-05 0.888795 3.40135e-05C0.397927 3.40135e-05 0 0.397961 0 0.888829C0 1.3797 0.397927 1.77762 0.888795 1.77762Z" fill="var(--fill-0, white)"/>
<path id="Vector_2" d="M4.44355 1.77759C4.93442 1.77759 5.33235 1.37966 5.33235 0.888795C5.33235 0.397927 4.93442 0 4.44355 0C3.95269 0 3.55476 0.397927 3.55476 0.888795C3.55476 1.37966 3.95269 1.77759 4.44355 1.77759Z" fill="var(--fill-0, white)"/>
<path id="Vector_3" d="M7.99942 1.77759C8.49029 1.77759 8.88822 1.37966 8.88822 0.888795C8.88822 0.397927 8.49029 0 7.99942 0C7.50855 0 7.11063 0.397927 7.11063 0.888795C7.11063 1.37966 7.50855 1.77759 7.99942 1.77759Z" fill="var(--fill-0, white)"/>
</g>
</svg>
