<svg preserveAspectRatio="none" width="100%" height="100%" overflow="visible" style="display: block;" viewBox="0 0 26.6667 26.6667" fill="none" xmlns="http://www.w3.org/2000/svg">
<path id="Vector" d="M14.6667 23.9175C19.4916 23.3159 23.3159 19.4916 23.9175 14.6667H20V12H23.9175C23.3159 7.17504 19.4916 3.35085 14.6667 2.74919V6.66667H12V2.74919C7.17504 3.35085 3.35085 7.17504 2.74919 12H6.66667V14.6667H2.74919C3.35085 19.4916 7.17504 23.3159 12 23.9175V20H14.6667V23.9175ZM13.3333 26.6667C5.96953 26.6667 0 20.6971 0 13.3333C0 5.96953 5.96953 0 13.3333 0C20.6971 0 26.6667 5.96953 26.6667 13.3333C26.6667 20.6971 20.6971 26.6667 13.3333 26.6667ZM13.3333 16C11.8605 16 10.6667 14.8061 10.6667 13.3333C10.6667 11.8605 11.8605 10.6667 13.3333 10.6667C14.8061 10.6667 16 11.8605 16 13.3333C16 14.8061 14.8061 16 13.3333 16Z" fill="var(--fill-0, #DB1010)"/>
</svg>
