<svg preserveAspectRatio="none" width="100%" height="100%" overflow="visible" style="display: block;" viewBox="0 0 37.5151 10.3396" fill="none" xmlns="http://www.w3.org/2000/svg">
<g id="Group">
<path id="Vector" d="M37.2439 1.35187H21.0498V3.84739H37.2439C37.3937 3.84739 37.515 3.72601 37.515 3.57624V1.62302C37.515 1.47326 37.3937 1.35187 37.2439 1.35187Z" fill="var(--fill-0, #05E39C)"/>
<g id="Group_2">
<path id="Vector_2" d="M37.2439 1.35172H34.4284C34.5781 1.35172 34.6995 1.4731 34.6995 1.62286V3.57609C34.6995 3.72585 34.5781 3.84723 34.4284 3.84723H37.2439C37.3937 3.84723 37.5151 3.72585 37.5151 3.57609V1.62286C37.5151 1.4731 37.3937 1.35172 37.2439 1.35172Z" fill="var(--fill-0, #0ED290)"/>
</g>
<path id="Vector_3" d="M28.1671 6.49297H21.0498V8.98848H28.1671C28.3169 8.98848 28.4382 8.8671 28.4382 8.71734V6.76411C28.4382 6.61435 28.3169 6.49297 28.1671 6.49297Z" fill="var(--fill-0, #FD8087)"/>
<g id="Group_3">
<path id="Vector_4" d="M28.1671 6.49313H25.3516C25.5013 6.49313 25.6227 6.61452 25.6227 6.76428V8.7175C25.6227 8.86727 25.5013 8.98865 25.3516 8.98865H28.1671C28.3169 8.98865 28.4383 8.86727 28.4383 8.7175V6.76428C28.4383 6.61452 28.3169 6.49313 28.1671 6.49313Z" fill="var(--fill-0, #FE646F)"/>
</g>
<g id="Group_4">
<path id="Vector_5" d="M7.70483 10.0854H0.271154C0.121392 10.0854 1.00088e-05 9.96405 1.00088e-05 9.81429V7.86106C1.00088e-05 7.7113 0.121392 7.58992 0.271154 7.58992H7.70483C7.85459 7.58992 7.97597 7.7113 7.97597 7.86106V9.81429C7.97597 9.96396 7.85459 10.0854 7.70483 10.0854Z" fill="var(--fill-0, #05E39C)"/>
</g>
<g id="Group_5">
<path id="Vector_6" d="M7.70479 7.58985H4.83501C4.98477 7.58985 5.10615 7.71123 5.10615 7.86099V9.81422C5.10615 9.96398 4.98477 10.0854 4.83501 10.0854H7.70479C7.85456 10.0854 7.97594 9.96398 7.97594 9.81422V7.86099C7.97594 7.71132 7.85456 7.58985 7.70479 7.58985Z" fill="var(--fill-0, #0ED290)"/>
</g>
<g id="Group_6">
<path id="Vector_7" d="M20.4623 10.3396C20.0878 10.3396 19.7844 10.0361 19.7844 9.66175V0.677859C19.7844 0.3035 20.0878 0 20.4623 0C20.8367 0 21.1401 0.3035 21.1401 0.677859V9.66175C21.1401 10.0361 20.8367 10.3396 20.4623 10.3396Z" fill="var(--fill-0, #8AC9FE)"/>
</g>
</g>
</svg>
