<svg preserveAspectRatio="none" width="100%" height="100%" overflow="visible" style="display: block;" viewBox="0 0 42 42" fill="none" xmlns="http://www.w3.org/2000/svg">
<g id="Group">
<g id="Vector">
</g>
<path id="Vector_2" d="M22.75 3.5V5.7365L31.5 8.6555L37.856 6.538L38.9637 9.856L33.6578 11.6253L39.0758 26.5212C37.1648 28.511 34.475 29.75 31.5 29.75C28.5233 29.75 25.8353 28.511 23.9243 26.5212L29.3387 11.6253L22.75 9.42725V33.25H29.75V36.75H12.25V33.25H19.25V9.42725L12.656 11.6253L18.074 26.5212C16.1647 28.511 13.475 29.75 10.5 29.75C7.52325 29.75 4.83525 28.511 2.92425 26.5212L8.33875 11.6253L3.03625 9.85775L4.144 6.53625L10.5 8.65375L19.25 5.7365V3.5H22.75ZM31.5 15.9302L28.0735 25.3558C29.1008 25.935 30.2733 26.25 31.5 26.25C32.725 26.25 33.8975 25.935 34.9265 25.3575L31.5 15.9285V15.9302ZM10.5 15.9302L7.0735 25.3558C8.10075 25.935 9.27325 26.25 10.5 26.25C11.725 26.25 12.8975 25.935 13.9265 25.3575L10.5 15.9285V15.9302Z" fill="var(--fill-0, #E13B3B)"/>
</g>
</svg>
