<svg preserveAspectRatio="none" width="100%" height="100%" overflow="visible" style="display: block;" viewBox="0 0 26.6667 28.6667" fill="none" xmlns="http://www.w3.org/2000/svg">
<path id="Vector" d="M21.3333 13.3333C24.2788 13.3333 26.6667 15.7212 26.6667 18.6667C26.6667 20.3504 25.8853 21.8507 24.6667 22.8281V28.6667L21.3333 26.6667L18 28.6667V22.8281C16.7813 21.8507 16 20.3504 16 18.6667C16 15.7212 18.3879 13.3333 21.3333 13.3333ZM22.6667 0C23.4031 0 24 0.59696 24 1.33333V10.6667H21.3333V2.66667H2.66667V24H13.3333V26.6667H1.33333C0.59696 26.6667 0 26.0697 0 25.3333V1.33333C0 0.59696 0.59696 0 1.33333 0H22.6667ZM21.3333 16C19.8605 16 18.6667 17.1939 18.6667 18.6667C18.6667 20.1395 19.8605 21.3333 21.3333 21.3333C22.8061 21.3333 24 20.1395 24 18.6667C24 17.1939 22.8061 16 21.3333 16ZM13.3333 17.3333H6.66667V14.6667H13.3333V17.3333ZM17.3333 12H6.66667V9.33333H17.3333V12Z" fill="var(--fill-0, #DB1010)"/>
</svg>
