<svg preserveAspectRatio="none" width="100%" height="100%" overflow="visible" style="display: block;" viewBox="0 0 23.892 5.62165" fill="none" xmlns="http://www.w3.org/2000/svg">
<g id="Group">
<path id="Vector" d="M0 4.21622C0 4.99244 0.629208 5.62165 1.40543 5.62165C2.18166 5.62165 2.81087 4.99244 2.81087 4.21622V1.40543C2.81087 0.629209 2.18157 0 1.40543 0C0.629208 0 0 0.629209 0 1.40543V4.21622Z" fill="var(--fill-0, #BDD3DD)"/>
<path id="Vector_2" d="M21.0811 4.21622C21.0811 4.99244 21.7103 5.62165 22.4865 5.62165C23.2627 5.62165 23.8919 4.99244 23.8919 4.21622V1.40543C23.8919 0.629209 23.2627 0 22.4865 0C21.7103 0 21.0811 0.629209 21.0811 1.40543V4.21622Z" fill="var(--fill-0, #BDD3DD)"/>
<path id="Vector_3" d="M7.027 4.21622C7.027 4.99244 7.65621 5.62165 8.43243 5.62165C9.20866 5.62165 9.83786 4.99244 9.83786 4.21622V1.40543C9.83786 0.629209 9.20866 0 8.43243 0C7.65621 0 7.027 0.629209 7.027 1.40543V4.21622Z" fill="var(--fill-0, #BDD3DD)"/>
<path id="Vector_4" d="M14.0541 4.21622C14.0541 4.99244 14.6833 5.62165 15.4595 5.62165C16.2357 5.62165 16.8649 4.99244 16.8649 4.21622V1.40543C16.8649 0.629209 16.2357 0 15.4595 0C14.6833 0 14.0541 0.629209 14.0541 1.40543V4.21622Z" fill="var(--fill-0, #BDD3DD)"/>
</g>
</svg>
