<svg preserveAspectRatio="none" width="100%" height="100%" overflow="visible" style="display: block;" viewBox="0 0 20.6988 45.5134" fill="none" xmlns="http://www.w3.org/2000/svg">
<g id="Group">
<path id="Vector" d="M10.3494 39.278C9.60851 39.278 8.97662 38.8109 8.73243 38.1549C8.60378 37.8094 8.31171 37.5531 7.94307 37.5531H7.78804C7.29115 37.5531 6.9006 37.9887 6.97067 38.4805C7.26883 40.5768 8.4455 43.1687 9.32699 44.8865C9.75583 45.7223 10.9432 45.7223 11.372 44.8865C12.2535 43.1686 13.4302 40.5768 13.7284 38.4805C13.7983 37.9887 13.4079 37.5531 12.911 37.5531H12.756C12.3873 37.5531 12.0952 37.8094 11.9666 38.1549C11.7223 38.8108 11.0904 39.278 10.3494 39.278Z" fill="var(--fill-0, #FFE077)"/>
<path id="Vector_2" d="M13.1093 31.8032L10.3495 28.3534L9.40683 29.5033L8.53197 33.8776C8.38966 34.5892 8.93389 35.253 9.65954 35.253H12.3965C13.1222 35.253 13.6664 34.589 13.5241 33.8776L13.1093 31.8032Z" fill="var(--fill-0, #B0A8AF)"/>
<path id="Vector_3" d="M12.6494 29.5033L10.3495 28.3534L8.04955 29.5033L7.17469 33.8776C7.03237 34.5892 7.57661 35.253 8.30225 35.253H9.65953L9.97974 33.6521C10.1947 32.577 11.1387 31.8032 12.235 31.8032H13.1095L12.6494 29.5033Z" fill="var(--fill-0, #9E959E)"/>
<path id="Vector_4" d="M19.3517 20.1065L16.0992 16.8539L14.3742 25.4785L19.5193 30.6236C19.9547 31.059 20.6988 30.7507 20.6988 30.135V23.3589C20.699 22.1391 20.2144 20.9692 19.3517 20.1065Z" fill="var(--fill-0, #B0A8AF)"/>
<path id="Vector_5" d="M1.34719 20.1065L4.59975 16.8539L6.32471 25.4785L1.17958 30.6236C0.744244 31.059 6.26293e-05 30.7507 6.26293e-05 30.135L6.26293e-05 23.3589C-7.26516e-05 22.1391 0.484505 20.9692 1.34719 20.1065Z" fill="var(--fill-0, #B0A8AF)"/>
<path id="Vector_6" d="M11.1759 0.339487C10.7151 -0.113162 9.98378 -0.113162 9.52301 0.339487C8.49258 1.35152 7.61555 2.58894 6.89992 3.91672L5.54873 12.2541V24.9035C5.54873 26.1737 6.57849 27.2034 7.84864 27.2034H13.7992C15.0694 27.2034 16.0992 26.1737 16.0992 24.9035V12.2541C16.0992 8.80753 14.3785 3.48531 11.1759 0.339487Z" fill="var(--fill-0, #F31F2E)"/>
<path id="Vector_7" d="M4.59976 12.2545L4.59976 24.9039C4.59976 26.1741 5.62951 27.2038 6.89967 27.2038L6.89967 3.91684C5.40265 6.70796 4.59976 9.92602 4.59976 12.2545Z" fill="var(--fill-0, #F8616C)"/>
<path id="Vector_8" d="M13.7993 28.5142H7.70175C6.4316 28.5142 5.40184 27.4845 5.40184 26.2143L6.89953 24.9037H16.099V27.2036L13.7993 28.5142Z" fill="var(--fill-0, #C9C5C9)"/>
<path id="Vector_9" d="M10.3495 15.7043C11.6197 15.7043 12.6494 14.6746 12.6494 13.4044C12.6494 12.1342 11.6197 11.1045 10.3495 11.1045C9.07927 11.1045 8.04956 12.1342 8.04956 13.4044C8.04956 14.6746 9.07927 15.7043 10.3495 15.7043Z" fill="var(--fill-0, #B8DDFF)"/>
<path id="Vector_10" d="M6.89967 24.9037H4.59976L4.59976 27.2036C4.59976 28.4738 5.62951 29.5035 6.89967 29.5035L13.7994 29.5035C15.0696 29.5035 16.0993 28.4738 16.0993 27.2036L9.19958 27.2036C7.92929 27.2036 6.89967 26.174 6.89967 24.9037Z" fill="var(--fill-0, #B8B2B8)"/>
</g>
</svg>
