<svg preserveAspectRatio="none" width="100%" height="100%" overflow="visible" style="display: block;" viewBox="0 0 41.3935 38.8063" fill="none" xmlns="http://www.w3.org/2000/svg">
<g id="Group">
<path id="Vector" d="M3.88063 16.8161V19.4032H6.46772V16.8161C6.46772 8.95763 12.8383 2.58709 20.6967 2.58709C28.5551 2.58709 34.9257 8.95763 34.9257 16.8161V19.4032H37.5128V16.8161C37.5128 7.52883 29.9839 0 20.6967 0C11.4095 0 3.88063 7.52883 3.88063 16.8161Z" fill="var(--fill-0, #B4D2E2)"/>
<path id="Vector_2" d="M14.7981 34.5529L14.4253 35.2984C14.1431 35.8628 13.5664 36.2192 12.9354 36.2192H8.54992C7.39996 36.2192 6.46772 35.287 6.46772 34.137V29.7515H3.88063V34.2255C3.88063 36.7554 5.93155 38.8063 8.4614 38.8063H18.3505C19.5004 38.8063 20.4327 37.8741 20.4327 36.7241V35.7143C20.4327 34.5643 19.5004 33.6321 18.3505 33.6321H16.2879C15.657 33.6321 15.0802 33.9886 14.7981 34.5529Z" fill="var(--fill-0, #B4D2E2)"/>
<path id="Vector_3" d="M6.46772 32.3386L1.67385 31.3798C0.700535 31.1852 0 30.3306 0 29.3381V21.1101C0 20.1176 0.700535 19.263 1.67385 19.0685L6.46772 18.1096L7.76126 25.8709L6.46772 32.3386Z" fill="var(--fill-0, #FFC344)"/>
<path id="Vector_4" d="M6.46771 18.1096L3.13627 18.7759V28.0147C3.13627 29.3898 1.87822 30.4212 0.529697 30.1515L0.133469 30.0723C0.381101 30.7289 0.952524 31.2356 1.67376 31.3798L6.46771 32.3386L7.76125 25.8709L6.46771 18.1096Z" fill="var(--fill-0, #FEB237)"/>
<path id="Vector_5" d="M7.68042 33.6321H9.13565C9.80539 33.6321 10.3484 33.0892 10.3484 32.4194V18.0288C10.3484 17.359 9.80539 16.8161 9.13565 16.8161H7.68042C7.01068 16.8161 6.46772 17.359 6.46772 18.0288V32.4194C6.46772 33.0892 7.01068 33.6321 7.68042 33.6321Z" fill="var(--fill-0, #017297)"/>
<path id="Vector_6" d="M34.9257 32.3386L39.7196 31.3798C40.6929 31.1852 41.3934 30.3306 41.3934 29.3381V21.1101C41.3934 20.1176 40.6929 19.263 39.7196 19.0685L34.9257 18.1096L33.6321 25.8709L34.9257 32.3386Z" fill="var(--fill-0, #FFC344)"/>
<path id="Vector_7" d="M39.7196 19.0683L37.9285 18.71C38.015 18.9395 38.0619 19.1873 38.0619 19.4443V26.6125C38.0619 28.2212 36.9264 29.6064 35.3489 29.9218L34.4772 30.0961L34.9257 32.3385L39.7196 31.3797C40.6929 31.1851 41.3935 30.3305 41.3935 29.338V21.11C41.3935 20.1175 40.6929 19.2629 39.7196 19.0683Z" fill="var(--fill-0, #FEB237)"/>
<path id="Vector_8" d="M33.713 33.6321H32.2577C31.588 33.6321 31.0451 33.0892 31.0451 32.4194V18.0288C31.0451 17.359 31.588 16.8161 32.2577 16.8161H33.713C34.3827 16.8161 34.9257 17.359 34.9257 18.0288V32.4194C34.9257 33.0892 34.3827 33.6321 33.713 33.6321Z" fill="var(--fill-0, #017297)"/>
</g>
</svg>
