<svg preserveAspectRatio="none" width="100%" height="100%" overflow="visible" style="display: block;" viewBox="0 0 42 42" fill="none" xmlns="http://www.w3.org/2000/svg">
<g id="Group">
<g id="Vector">
</g>
<path id="Vector_2" d="M22.75 36.75V40.25H19.25V36.75H5.25C4.78587 36.75 4.34075 36.5656 4.01256 36.2374C3.68437 35.9092 3.5 35.4641 3.5 35V10.5H38.5V35C38.5 35.4641 38.3156 35.9092 37.9874 36.2374C37.6592 36.5656 37.2141 36.75 36.75 36.75H22.75ZM7 33.25H35V14H7V33.25ZM22.75 17.5H31.5V21H22.75V17.5ZM22.75 24.5H31.5V28H22.75V24.5ZM15.75 17.5V22.75H21C21 23.7884 20.6921 24.8034 20.1152 25.6667C19.5383 26.5301 18.7184 27.203 17.7591 27.6004C16.7998 27.9977 15.7442 28.1017 14.7258 27.8991C13.7074 27.6966 12.7719 27.1965 12.0377 26.4623C11.3035 25.7281 10.8035 24.7926 10.6009 23.7742C10.3983 22.7558 10.5023 21.7002 10.8996 20.7409C11.297 19.7816 11.9699 18.9617 12.8333 18.3848C13.6966 17.8079 14.7116 17.5 15.75 17.5V17.5ZM3.5 5.25H38.5V8.75H3.5V5.25Z" fill="var(--fill-0, #E13B3B)"/>
</g>
</svg>
