<svg preserveAspectRatio="none" width="100%" height="100%" overflow="visible" style="display: block;" viewBox="0 0 15.7385 15.7887" fill="none" xmlns="http://www.w3.org/2000/svg">
<g id="Group">
<path id="Vector" d="M3.06487 9.31642H0.0774104C0.747135 12.9976 3.96941 15.7887 7.84387 15.7887C7.87405 15.7887 7.90406 15.7879 7.93425 15.7875V12.8779C7.90406 12.8784 7.87423 12.8801 7.84387 12.8801C5.58452 12.8802 3.6772 11.377 3.06487 9.31642Z" fill="var(--fill-0, #978ECB)"/>
<path id="Vector_2" d="M7.84397 0.000165132C3.78586 0.000165132 0.443471 3.06237 6.06607e-05 7.00209H2.93926C3.36016 4.67459 5.39518 2.90872 7.84397 2.90872C10.5976 2.90872 12.8299 5.14105 12.8299 7.89469C12.8299 7.92497 12.8282 7.95488 12.8277 7.98507H15.7373C15.7377 7.95497 15.7385 7.92488 15.7385 7.89469C15.7384 3.53461 12.204 0.000165132 7.84397 0.000165132Z" fill="var(--fill-0, #978ECB)"/>
</g>
</svg>
