<svg preserveAspectRatio="none" width="100%" height="100%" overflow="visible" style="display: block;" viewBox="0 0 32 32" fill="none" xmlns="http://www.w3.org/2000/svg">
<g id="Group">
<g id="Vector">
</g>
<path id="Vector_2" d="M20 4C20.736 4 21.3333 4.59733 21.3333 5.33333V8H28C28.736 8 29.3333 8.59733 29.3333 9.33333V26.6667C29.3333 27.4027 28.736 28 28 28H4C3.264 28 2.66667 27.4027 2.66667 26.6667V9.33333C2.66667 8.59733 3.264 8 4 8H10.6667V5.33333C10.6667 4.59733 11.264 4 12 4H20ZM21.3333 10.6667H10.6667V25.3333H21.3333V10.6667ZM5.33333 10.6667V25.3333H8V10.6667H5.33333ZM18.6667 6.66667H13.3333V8H18.6667V6.66667ZM24 10.6667V25.3333H26.6667V10.6667H24Z" fill="var(--fill-0, #DB1010)"/>
</g>
</svg>
