<svg width="42" height="40" viewBox="0 0 42 40" fill="none" xmlns="http://www.w3.org/2000/svg">
<path opacity="0.9" fill-rule="evenodd" clip-rule="evenodd" d="M20.9308 40H21.7659L21.5667 36.6375L22.3333 35.9721C25.7991 36.3885 28.9023 36.7649 32.3631 37.1915L31.4864 34.1389C31.3454 33.6017 31.5443 33.0178 31.9378 32.6909L42 24.0566L39.9145 23.0199C39.0005 22.6741 39.2579 22.1325 39.5837 20.8228L41.117 14.9214L35.278 16.2188C34.7053 16.3105 34.3266 15.9268 34.2434 15.5643L33.4873 12.7876L28.867 18.255C28.2104 19.1308 26.8817 19.1308 27.2964 17.1055L29.2704 6.03017L26.6235 7.48111C25.8781 7.91719 25.1382 7.98999 24.7165 7.20737L20.9996 0L17.2814 7.20592C16.8674 7.98854 16.1219 7.91792 15.3807 7.48111L12.7338 6.03017L14.7093 17.104C15.1183 19.1316 13.7896 19.1316 13.133 18.255L8.5127 12.7876L7.76088 15.5643C7.67131 15.9268 7.29963 16.3105 6.72623 16.2202L0.882303 14.9214L2.41558 20.8213C2.74635 22.1303 3.00378 22.6741 2.08974 23.0214L0 24.0566L10.0622 32.6894C10.4614 33.0156 10.6652 33.6031 10.5234 34.1389L9.64115 37.1915C13.1019 36.7656 16.2052 36.3907 19.6709 35.9721L20.4375 36.6375L20.1021 40H20.9315H20.9308Z" fill="#BA0E0E"/>
</svg>
