<svg preserveAspectRatio="none" width="100%" height="100%" overflow="visible" style="display: block;" viewBox="0 0 152.708 87.6365" fill="none" xmlns="http://www.w3.org/2000/svg">
<g id="Group">
<path id="Vector" fill-rule="evenodd" clip-rule="evenodd" d="M43.0232 23.1556L64.5426 55.3111L86.0465 87.4666H43.0232H0L21.5039 55.3111L43.0232 23.1556Z" fill="var(--fill-0, #CA0ECA)"/>
<path id="Vector_2" fill-rule="evenodd" clip-rule="evenodd" d="M94.0779 0L123.393 43.8105L152.708 87.6365H94.0779H35.4477L64.7628 43.8105L94.0779 0Z" fill="var(--fill-0, #950C95)"/>
<path id="Vector_3" fill-rule="evenodd" clip-rule="evenodd" d="M29.7165 43.0386L30.5347 50.1243L38.8398 42.4674L44.2737 59.2321L49.6921 45.1844L58.6457 51.5599L56.5308 43.3474L43.0233 23.1556L29.7165 43.0386Z" fill="var(--fill-0, #E3C0E3)"/>
<path id="Vector_4" fill-rule="evenodd" clip-rule="evenodd" d="M94.0775 0L109.715 23.3718L103.201 20.7475L104.945 34.7952L97.1186 24.9L89.3075 42.4675L87.2235 26.6444L76.3712 35.1194L78.8874 22.6925L94.0775 0Z" fill="var(--fill-0, #E3C0E3)"/>
</g>
</svg>
