<svg width="219" height="321" viewBox="0 0 219 321" fill="none" xmlns="http://www.w3.org/2000/svg">
<g clip-path="url(#clip0_13424_16213)">
<path d="M124.521 321L155.815 279.875L205.252 295.275L168.619 181.138L87.8877 206.861L124.521 321Z" fill="#A71C1F"/>
<path d="M94.4789 321L63.1843 279.875L13.7471 295.275L50.3799 181.138L131.112 206.861L94.4789 321Z" fill="#891719"/>
<path d="M219 109.105C219 114.755 212.647 119.841 211.793 125.252C210.917 130.807 215.374 137.593 213.668 142.828C211.933 148.153 204.309 151.034 201.789 155.953C199.242 160.925 201.365 168.76 198.093 173.24C194.804 177.74 186.665 178.136 182.722 182.063C178.781 185.99 178.384 194.101 173.867 197.378C169.371 200.638 161.507 198.523 156.518 201.06C151.58 203.572 148.69 211.168 143.345 212.897C138.093 214.596 131.281 210.155 125.705 211.029C120.274 211.879 115.168 218.209 109.499 218.209C103.829 218.209 98.7233 211.879 93.2924 211.029C87.7172 210.155 80.9068 214.596 75.6529 212.897C70.3081 211.168 67.4174 203.572 62.48 201.06C57.4906 198.523 49.6268 200.638 45.1309 197.378C40.6139 194.101 40.2162 185.991 36.2754 182.063C32.3346 178.136 24.1932 177.74 20.9049 173.24C17.6328 168.76 19.7558 160.925 17.2091 155.953C14.6885 151.034 7.06492 148.153 5.32985 142.828C3.624 137.595 8.08096 130.807 7.2045 125.252C6.35077 119.841 -0.00195312 114.753 -0.00195312 109.105C-0.00195312 103.456 6.35077 98.3679 7.2045 92.9568C8.08096 87.4017 3.624 80.6159 5.32985 75.381C7.06492 70.0556 14.6885 67.1753 17.2091 62.2558C19.7558 57.2845 17.6328 49.4492 20.9049 44.9695C24.1932 40.4689 32.333 40.0726 36.2754 36.1461C40.2162 32.2195 40.6139 24.1076 45.1309 20.8312C49.6268 17.5709 57.4906 19.6862 62.48 17.1488C67.4693 14.6114 70.3081 7.0413 75.6529 5.31251C80.9051 3.61283 87.7172 8.05367 93.2924 7.18038C98.7233 6.32973 103.829 0 109.499 0C115.168 0 120.274 6.32973 125.705 7.18038C131.281 8.05367 138.091 3.61283 143.345 5.31251C148.69 7.0413 151.58 14.6373 156.518 17.1488C161.507 19.6862 169.371 17.5709 173.867 20.8312C178.384 24.1076 178.781 32.2179 182.722 36.1461C186.663 40.0726 194.804 40.4689 198.093 44.9695C201.365 49.4492 199.242 57.2845 201.789 62.2558C204.309 67.1753 211.933 70.0556 213.668 75.381C215.374 80.6143 210.917 87.4017 211.793 92.9568C212.647 98.3679 219 103.456 219 109.105Z" fill="white"/>
<path d="M109.5 191.826C155.352 191.826 192.522 154.79 192.522 109.105C192.522 63.4187 155.352 26.3831 109.5 26.3831C63.6487 26.3831 26.4785 63.4187 26.4785 109.105C26.4785 154.79 63.6487 191.826 109.5 191.826Z" fill="#DB1010"/>
<path d="M109.501 173.13C144.989 173.13 173.758 144.465 173.758 109.105C173.758 73.7446 144.989 45.0796 109.501 45.0796C74.0123 45.0796 45.2432 73.7446 45.2432 109.105C45.2432 144.465 74.0123 173.13 109.501 173.13Z" fill="#B52023"/>
<path d="M117.174 75.0235L122.56 85.786C123.808 88.2813 126.2 90.0117 128.968 90.4241L140.905 92.2014C147.904 93.2429 150.696 101.806 145.648 106.747L137.039 115.175C135.043 117.129 134.131 119.932 134.591 122.681L136.585 134.543C137.753 141.497 130.443 146.788 124.166 143.533L113.461 137.98C110.979 136.692 108.023 136.692 105.54 137.98L94.8342 143.533C88.5578 146.788 81.2491 141.497 82.4161 134.543L84.4092 122.681C84.8718 119.932 83.958 117.129 81.9616 115.175L73.3528 106.747C68.3051 101.804 71.0984 93.2429 78.0955 92.2014L90.0332 90.4241C92.8005 90.0117 95.1929 88.2813 96.4411 85.786L101.826 75.0235C104.983 68.7132 114.019 68.7132 117.176 75.0235H117.174Z" fill="#E7C5C6"/>
</g>
<defs>
<clipPath id="clip0_13424_16213">
<rect width="219" height="321" fill="white"/>
</clipPath>
</defs>
</svg>
