<svg width="158" height="260" fill="none" xmlns="http://www.w3.org/2000/svg"><g opacity="0.6"><path d="M77.2452 88.7355C77.2452 88.7355 77.5377 88.5827 78.0993 88.289C78.6609 88.0187 79.4917 87.6192 80.5564 87.114C82.6741 86.1152 85.7513 84.8109 89.5187 83.4362C91.3908 82.7429 93.45 82.0732 95.6379 81.4034C97.8259 80.7572 100.154 80.1227 102.576 79.5704C104.986 78.9829 107.525 78.5834 110.099 78.1722C112.673 77.8314 115.306 77.5377 117.939 77.4554L119.916 77.3732H121.893C123.204 77.3497 124.514 77.4672 125.801 77.5259C127.1 77.5964 128.375 77.7844 129.639 77.8784C130.902 78.0429 132.131 78.2544 133.359 78.4424C134.564 78.7009 135.758 78.9594 136.916 79.2179C138.063 79.5352 139.186 79.8407 140.286 80.1344C141.362 80.4987 142.404 80.8629 143.422 81.2037C144.428 81.5562 145.375 81.9792 146.3 82.3434C147.236 82.6959 148.078 83.1307 148.897 83.5302C149.716 83.9297 150.512 84.2704 151.226 84.6582C152.63 85.4689 153.905 86.1152 154.888 86.7497C156.853 88.0187 158 88.7237 158 88.7237C158 88.7237 156.982 87.8542 155.145 86.3737C154.221 85.6452 153.016 84.8697 151.67 83.9062C150.992 83.4362 150.219 83.0132 149.424 82.5314C148.628 82.0497 147.786 81.5562 146.861 81.1332C145.949 80.6984 145.013 80.1814 143.995 79.7467C142.977 79.3354 141.924 78.9124 140.836 78.4777C139.724 78.1134 138.578 77.7374 137.419 77.3497C136.238 77.0207 135.009 76.7387 133.769 76.4214C132.517 76.1982 131.242 75.9279 129.943 75.7164C128.632 75.5637 127.322 75.3404 125.977 75.2582C124.643 75.1759 123.286 75.0467 121.928 75.0584L119.892 75.0349L117.857 75.1054C115.13 75.2112 112.428 75.5402 109.783 75.9162C107.139 76.3509 104.565 76.8914 102.108 77.5494C99.6394 78.1722 97.3111 78.9477 95.1114 79.7232C92.9235 80.5104 90.8876 81.3329 89.039 82.1789C85.3301 83.8122 82.405 85.5159 80.3692 86.7027C78.345 87.9247 77.2686 88.7237 77.2686 88.7237L77.2452 88.7355Z" fill="#8B008B"/><path d="M72.9158 79.3359C72.9158 79.3359 75.0569 75.1881 79.4094 69.8888C80.4975 68.5728 81.7377 67.1863 83.0833 65.7646C84.4522 64.3663 85.9264 62.9328 87.541 61.5463C89.1323 60.1363 90.8873 58.8085 92.6891 57.4925C93.6134 56.8698 94.5144 56.2 95.4738 55.6125L96.9012 54.7078L98.3754 53.8735C100.329 52.7338 102.365 51.735 104.389 50.8185C105.407 50.3603 106.437 49.9725 107.443 49.5495C108.461 49.15 109.491 48.8093 110.485 48.445C112.509 47.7988 114.475 47.1878 116.37 46.7178C117.318 46.4475 118.242 46.2712 119.143 46.0832C120.044 45.8952 120.91 45.6602 121.752 45.5427C123.437 45.2725 124.993 44.9552 126.374 44.8142C127.755 44.6497 128.971 44.45 129.978 44.3912C131.99 44.1915 133.137 44.0857 133.137 44.0857C133.137 44.0857 131.978 44.027 129.966 43.933C128.948 43.8625 127.731 43.9095 126.316 43.933C124.9 43.933 123.309 44.074 121.577 44.215C120.699 44.262 119.81 44.4265 118.874 44.544C117.938 44.6615 116.979 44.8142 115.996 45.014C114.019 45.3665 111.959 45.86 109.865 46.471C108.824 46.8117 107.747 47.129 106.683 47.505C105.63 47.9045 104.541 48.2805 103.488 48.7505C101.371 49.667 99.2529 50.6775 97.2171 51.8408L95.6961 52.722L94.2218 53.6738C93.2273 54.2848 92.2913 54.9898 91.3553 55.6595C89.495 57.0343 87.7633 58.503 86.1604 60.007C84.5341 61.4876 83.1067 63.0738 81.7845 64.5778C80.4741 66.1053 79.3275 67.6211 78.333 69.0663C76.3322 71.9451 74.9633 74.5301 74.1092 76.3749C73.2551 78.2196 72.9041 79.3359 72.9041 79.3359H72.9158Z" fill="#EC72EC"/><path d="M64.3407 73.2145C64.3407 73.2145 64.3056 72.909 64.2822 72.3215C64.2354 71.7458 64.2471 70.888 64.2003 69.7952C64.212 68.7025 64.1652 67.3982 64.2588 65.8825C64.3056 64.3785 64.446 62.6747 64.5981 60.83C64.6449 59.9017 64.797 58.95 64.9257 57.963C65.0661 56.976 65.1363 55.9419 65.3235 54.9079C65.6979 52.8164 66.0138 50.6192 66.552 48.3749C66.8094 47.2469 67.02 46.0954 67.3359 44.9557C67.6518 43.8159 67.9678 42.6527 68.2954 41.4894C68.4592 40.9019 68.6113 40.3144 68.7751 39.7269L69.3601 37.9879C69.7462 36.8246 70.144 35.6614 70.5418 34.4981C71.3725 32.1834 72.3436 29.9274 73.2328 27.6713C74.2625 25.4741 75.2804 23.3238 76.2632 21.2323C77.3747 19.1996 78.4394 17.2491 79.4574 15.3808C79.9371 14.4291 80.4987 13.5713 81.0369 12.7253C81.5634 11.8793 82.0782 11.0568 82.5696 10.2695C83.5758 8.71853 84.3948 7.21453 85.3075 6.01602C86.185 4.78227 86.9455 3.71301 87.5773 2.82001C88.8292 1.04575 89.5195 0 89.5195 0C89.5195 0 88.6654 0.904753 87.2263 2.53801C86.5009 3.36051 85.6234 4.34752 84.6171 5.48727C83.5641 6.59177 82.5813 8.00178 81.4581 9.50578C80.8965 10.2578 80.3232 11.045 79.7148 11.8558C79.1063 12.6665 78.4979 13.5243 77.9597 14.4526C76.8365 16.2856 75.608 18.2008 74.438 20.2453C73.3849 22.3486 72.2383 24.4988 71.1619 26.7313C70.2376 29.0226 69.208 31.3256 68.3422 33.6874C67.9561 34.8859 67.5582 36.0844 67.1721 37.2711L66.5871 39.0571C66.435 39.6564 66.2712 40.2674 66.1191 40.8666C65.8149 42.0651 65.5107 43.2637 65.2182 44.4387C64.9374 45.6254 64.7619 46.8122 64.5396 47.9637C64.0482 50.2667 63.861 52.5462 63.5919 54.6964C63.4047 56.8467 63.276 58.8912 63.2643 60.7712C63.2643 61.7112 63.2643 62.616 63.2643 63.4737C63.2877 64.3315 63.3579 65.1422 63.393 65.906C63.4515 67.4335 63.6387 68.7495 63.744 69.8422C64.0365 72.016 64.3407 73.2263 64.3407 73.2263V73.2145Z" fill="#8B008B"/><path d="M60.2793 79.3359C60.2793 79.3359 59.5773 78.6074 58.2201 77.4794C57.5297 76.9272 56.7107 76.2339 55.7045 75.5172C55.2014 75.1529 54.6749 74.7652 54.1133 74.3657C53.54 73.9779 52.9316 73.5902 52.2998 73.1672C51.0478 72.3094 49.597 71.5222 48.0994 70.6409C46.5433 69.8654 44.952 68.9254 43.197 68.1969C42.3312 67.8091 41.442 67.4214 40.5528 67.0219C39.6518 66.6341 38.7158 66.3051 37.7798 65.9526C35.9195 65.2124 33.9772 64.6484 32.035 64.0491L30.5725 63.6261L29.0983 63.2854C28.1154 63.0504 27.1326 62.8271 26.1615 62.6039C25.1904 62.3454 24.2076 62.2279 23.2482 62.0751C22.277 61.9224 21.3293 61.7814 20.3933 61.6286C18.5213 61.3231 16.6726 61.2761 14.941 61.1234C13.2094 60.9354 11.5597 61.0059 10.0503 61.0059C8.541 61.0294 7.14867 60.9706 5.92015 61.1116C4.70333 61.2291 3.62692 61.3349 2.7494 61.4171C1.00607 61.6169 -0.000148773 61.7226 -0.000148773 61.7226C-0.000148773 61.7226 1.00607 61.7814 2.7611 61.8754C3.63861 61.9106 4.69164 61.9576 5.90845 62.0046C6.51686 62.0046 7.16037 62.0634 7.83898 62.1456C8.51759 62.2044 9.23132 62.2749 9.98013 62.3454C11.4661 62.4981 13.0807 62.5804 14.7655 62.8624C15.6079 62.9799 16.4737 63.1091 17.363 63.2384C18.2405 63.3794 19.1531 63.4616 20.0657 63.6614C21.8792 64.0374 23.7747 64.3546 25.6701 64.8129C26.6178 65.0479 27.5655 65.2829 28.5249 65.5179L29.9641 65.8704L31.3798 66.3051C33.2752 66.8691 35.1824 67.3979 37.0076 68.0911C37.9202 68.4319 38.8445 68.7139 39.7337 69.0546C40.623 69.4071 41.5005 69.7596 42.3663 70.1004C44.0979 70.7702 45.7242 71.5457 47.2921 72.2154C48.8131 72.9909 50.3107 73.6254 51.6094 74.3422C56.9213 77.0682 60.2559 79.3477 60.2559 79.3477L60.2793 79.3359Z" fill="#8B008B"/><path d="M63.8125 88.7365C63.8125 88.7365 63.5551 88.7247 63.0754 88.6895C62.5957 88.666 61.882 88.6307 60.9694 88.6425C60.0568 88.6425 58.957 88.6777 57.705 88.76C56.4414 88.8657 55.014 88.948 53.4813 89.183C51.9251 89.3592 50.2637 89.653 48.5087 89.9937C46.7536 90.3345 44.9167 90.7927 43.033 91.298C42.097 91.58 41.1493 91.8737 40.1898 92.1675C39.7101 92.3202 39.2187 92.4612 38.739 92.614C38.2593 92.7902 37.7796 92.9782 37.2999 93.1662C36.3405 93.5305 35.3693 93.9065 34.3982 94.2825C33.4388 94.6702 32.4911 95.1402 31.5434 95.5632C30.6074 96.0215 29.6362 96.421 28.7236 96.9263C27.811 97.4315 26.9101 97.9368 26.0092 98.442C24.1723 99.3703 22.5459 100.616 20.9079 101.685C19.2348 102.719 17.8307 104 16.4267 105.116C15.7364 105.692 15.0461 106.221 14.426 106.785C13.8293 107.384 13.2443 107.948 12.6944 108.5C11.5945 109.616 10.5415 110.58 9.72252 111.555C8.9269 112.542 8.22489 113.4 7.65158 114.105C6.52836 115.527 5.89655 116.349 5.89655 116.349C5.89655 116.349 6.65707 115.644 8.00259 114.422C8.6578 113.799 9.4534 113.059 10.366 112.19C11.2786 111.344 12.4253 110.509 13.5953 109.511C14.192 109.029 14.8004 108.512 15.4439 107.995C16.0991 107.49 16.8128 107.02 17.5148 106.503C18.954 105.504 20.4048 104.364 22.0662 103.401C23.6925 102.402 25.3423 101.321 27.1324 100.416C28.0099 99.946 28.8991 99.4643 29.7884 98.9825C30.6776 98.5008 31.6253 98.1248 32.5379 97.69C33.4622 97.267 34.3631 96.797 35.2992 96.4092C36.2352 96.0332 37.1829 95.6572 38.1072 95.293C39.9558 94.5057 41.8396 93.9417 43.6414 93.2837C45.4666 92.7432 47.2217 92.1557 48.9182 91.7092C50.6147 91.2745 52.2176 90.828 53.727 90.5225C56.7222 89.8292 59.2495 89.4062 61.0279 89.1242C61.9171 88.995 62.6191 88.8775 63.0988 88.8305C63.5785 88.7717 63.8359 88.7482 63.8359 88.7482L63.8125 88.7365Z" fill="#EC72EC"/><path d="M63.8145 102.542C63.8145 102.542 62.9369 103.082 61.5095 104.187C60.8192 104.763 59.9417 105.433 59.0408 106.314C58.5845 106.749 58.0931 107.207 57.5783 107.689C57.0868 108.206 56.5837 108.746 56.0455 109.31C54.9808 110.45 53.9044 111.742 52.8046 113.141C51.7515 114.574 50.5815 116.055 49.587 117.735C49.0722 118.569 48.5106 119.38 48.0192 120.261C47.5395 121.142 47.0598 122.035 46.5684 122.94L45.8546 124.303L45.2111 125.713C44.7899 126.653 44.357 127.605 43.9241 128.557C43.1519 130.484 42.5084 132.469 41.8064 134.385C41.2448 136.347 40.7534 138.309 40.2502 140.189C39.8641 142.093 39.5599 143.961 39.2557 145.712C38.9281 147.462 38.893 149.154 38.7292 150.694C38.6005 152.245 38.4484 153.655 38.4952 154.912C38.5069 156.169 38.5186 157.262 38.5303 158.167C38.5771 159.964 38.6122 160.998 38.6122 160.998C38.6122 160.998 38.7526 159.976 38.9983 158.19C39.1036 157.297 39.244 156.216 39.3961 154.982C39.4897 153.737 39.8173 152.362 40.063 150.858C40.1917 150.106 40.3322 149.319 40.4843 148.508C40.6247 147.697 40.7417 146.851 40.9757 146.017C41.3852 144.325 41.8064 142.539 42.251 140.683C42.8009 138.861 43.3976 136.993 43.9475 135.09C44.6612 133.233 45.3164 131.318 46.077 129.45C46.4748 128.521 46.8843 127.593 47.2821 126.677L47.8788 125.302L48.5574 123.974C49.002 123.093 49.4466 122.212 49.8912 121.342C50.3358 120.473 50.8506 119.662 51.3186 118.839C52.243 117.183 53.2609 115.667 54.1969 114.186C54.6532 113.446 55.1914 112.788 55.6594 112.107C56.1391 111.437 56.572 110.779 57.0517 110.191C57.9878 108.993 58.8419 107.888 59.6609 106.948C60.4448 105.985 61.2053 105.209 61.802 104.539C62.4338 103.905 62.9018 103.376 63.2528 103.059C63.5922 102.718 63.7911 102.554 63.7911 102.554L63.8145 102.542Z" fill="#8B008B"/><path d="M51.2246 51.1361C51.2246 51.1361 51.1427 50.0316 50.78 48.1398C50.4173 46.2481 49.7972 43.5456 48.7208 40.3965C48.1943 38.822 47.5507 37.13 46.7902 35.391C46.0297 33.6403 45.1522 31.819 44.1343 30.0095C43.1047 28.2 42.0048 26.3317 40.7178 24.5575C39.4659 22.748 38.0502 21.0207 36.576 19.3405C35.8271 18.5062 35.0315 17.719 34.2593 16.92C33.4403 16.168 32.6564 15.3807 31.814 14.6757C30.1525 13.2304 28.4209 11.9379 26.6776 10.7747C24.946 9.59968 23.1792 8.61268 21.471 7.75492C20.6052 7.34367 19.7862 6.92067 18.9555 6.56817C18.1247 6.23917 17.3174 5.92192 16.5452 5.60467C14.9774 5.05241 13.5383 4.57066 12.2395 4.24166C10.9291 3.92441 9.8059 3.60716 8.85818 3.45441C6.96275 3.14891 5.87463 2.97266 5.87463 2.97266C5.87463 2.97266 6.91595 3.31341 8.72948 3.91266C9.64209 4.18291 10.7068 4.65291 11.9587 5.09941C12.5905 5.31091 13.2224 5.61642 13.901 5.91017C14.5796 6.21567 15.305 6.48592 16.0304 6.85017C16.7558 7.21442 17.5046 7.59042 18.2885 7.97817C19.0608 8.37768 19.833 8.83593 20.6403 9.29418C22.2315 10.2342 23.8695 11.2917 25.4959 12.4667C27.1456 13.6299 28.7251 14.9812 30.3163 16.3677C31.112 17.061 31.8608 17.8247 32.633 18.5532C33.3701 19.3287 34.1189 20.0925 34.8326 20.9032C36.26 22.5012 37.6524 24.1462 38.8809 25.8735C40.1328 27.5772 41.3028 29.3162 42.3559 31.0435C43.3972 32.7825 44.3683 34.4863 45.2224 36.143C46.0648 37.7998 46.837 39.3978 47.4805 40.89C48.791 43.8746 49.727 46.4478 50.3354 48.2573C50.9438 50.0786 51.2246 51.1361 51.2246 51.1361Z" fill="#EC72EC"/></g><path d="M108.472 120.287L143.441 204.365L108.634 218.965L73.6642 134.888L108.472 120.287Z" fill="#8B008B"/><mask id="mask0_13036_7006" style="mask-type:luminance" maskUnits="userSpaceOnUse" x="73" y="120" width="71" height="99"><path d="M108.472 120.286L143.441 204.364L108.634 218.965L73.6642 134.887L108.472 120.286Z" fill="white"/></mask><g mask="url(#mask0_13036_7006)"><path d="M140.581 121.655L140.65 130.704L53.0852 131.379L53.016 122.331L140.581 121.655Z" fill="#EC72EC"/><path d="M145.827 142.561L145.896 151.609L58.3313 152.285L58.2621 143.236L145.827 142.561Z" fill="#EC72EC"/><path d="M151.091 163.482L151.16 172.531L63.595 173.206L63.5258 164.157L151.091 163.482Z" fill="#EC72EC"/><path d="M156.337 184.388L156.406 193.437L68.8411 194.112L68.7719 185.063L156.337 184.388Z" fill="#EC72EC"/><path d="M161.599 205.292L161.668 214.341L74.1028 215.016L74.0336 205.967L161.599 205.292Z" fill="#EC72EC"/></g><path d="M117.205 121.363L68.2982 141.876L81.0809 103.563L117.205 121.363Z" fill="#8B008B"/><path d="M118.851 214.643L136.5 257.097L131.24 259.302L113.592 216.848L118.851 214.643Z" fill="#8B008B"/></svg>