<svg width="194" height="259" fill="none" xmlns="http://www.w3.org/2000/svg"><path d="M110.05 135.025L126.409 136.544L137.239 148.895L151.624 120.701L124.427 106.83L110.05 135.025Z" fill="#662C91"/><path d="M125.65 126.575C125.498 126.173 122.996 120.957 122.996 120.957L124.09 120.988C124.09 120.988 124.505 121.077 124.591 120.591C124.684 120.061 125.161 117.541 125.161 117.541L127.367 119.343C127.367 119.343 127.75 119.651 128.029 119.342C128.308 119.032 128.857 118.419 128.857 118.419L129.847 121.613C129.847 121.613 129.93 122.01 130.298 122.046C130.667 122.082 130.779 121.368 130.876 121.079C130.98 120.79 132.105 116.71 132.105 116.71C132.105 116.71 132.896 117.854 132.988 117.968C133.081 118.082 133.364 118.432 133.813 118.131C134.296 117.813 136.786 116.17 136.786 116.17C136.786 116.17 136.919 119.158 136.944 119.731C136.968 120.267 137.415 120.295 137.563 120.299C137.71 120.303 139.1 120.274 139.1 120.274C139.1 120.274 136.453 123.581 136.283 123.835C136.106 124.088 135.597 124.588 135.844 124.872C136.091 125.156 136.459 124.982 136.459 124.982L139.622 123.909C139.622 123.909 139.449 124.716 139.359 125.119C139.269 125.522 139.741 125.652 139.741 125.652L142.494 126.376C142.494 126.376 140.733 128.247 140.358 128.629C140.019 128.98 140.335 129.269 140.335 129.269L141.004 130.13C141.004 130.13 135.316 131.163 134.902 131.277C134.488 131.39 134.459 131.856 134.459 131.856L134.297 133.077C134.297 133.077 130.561 130.493 130.228 130.321C129.895 130.149 129.696 130.555 129.696 130.555L127.682 135.016L127.268 134.807L126.855 134.598L129.282 130.346C129.282 130.346 129.497 129.943 129.163 129.778C128.829 129.606 124.548 128.099 124.548 128.099L125.442 127.256C125.442 127.256 125.804 126.961 125.653 126.553L125.65 126.575Z" fill="white"/><path d="M118.342 103.167L85.5605 84.4808L86.0722 121.344L118.342 103.167Z" fill="#662C91"/><path d="M115.845 101.606L113.583 105.504L107.832 108.666L112.917 99.933L115.845 101.606Z" fill="white"/><path d="M107.698 97.0952L97.1546 115.14L91.3545 118.315L104.739 95.4156L107.698 97.0952Z" fill="white"/><path d="M99.5496 92.3564L86.0617 115.336L85.9336 108.76L96.5559 90.6728L99.5496 92.3564Z" fill="white"/><path d="M91.3976 87.51L86.2377 96.3168L86.1183 89.7551L88.4213 85.8286L91.3976 87.51Z" fill="white"/><path d="M36.4026 86.4443L52.3164 90.8701L60.67 104.855L80.3348 79.9868L56.0674 61.5764L36.4026 86.4443Z" fill="#662C91"/><path d="M53.4429 81.0164C53.3724 80.5923 51.8899 75.0674 51.8899 75.0674L52.9617 75.2966C52.9617 75.2966 53.3585 75.4573 53.5339 75.0024C53.7231 74.505 54.6839 72.1331 54.6839 72.1331L56.5179 74.2867C56.5179 74.2867 56.8374 74.658 57.1703 74.4034C57.5032 74.1487 58.1668 73.6539 58.1668 73.6539L58.5277 76.9431C58.5277 76.9431 58.532 77.3404 58.8984 77.4433C59.2572 77.5449 59.5034 76.8707 59.6586 76.6067C59.8139 76.3427 61.7099 72.5743 61.7099 72.5743C61.7099 72.5743 62.2743 73.8275 62.3407 73.959C62.4071 74.0906 62.6237 74.4735 63.1279 74.2719C63.6656 74.0539 66.4492 72.8983 66.4492 72.8983C66.4492 72.8983 66.0055 75.8341 65.9236 76.3956C65.847 76.9205 66.2816 77.0357 66.4258 77.0615C66.5699 77.0873 67.9525 77.3196 67.9525 77.3196C67.9525 77.3196 64.6956 80.0664 64.4784 80.2745C64.2602 80.4898 63.658 80.8834 63.8452 81.2012C64.0323 81.519 64.435 81.4264 64.435 81.4264L67.7739 80.9463C67.7739 80.9463 67.4542 81.6971 67.282 82.0778C67.1173 82.4598 67.5619 82.6666 67.5619 82.6666L70.1493 83.8701C70.1493 83.8701 68.0468 85.3719 67.6058 85.6746C67.1993 85.9535 67.4612 86.2922 67.4612 86.2922L67.9512 87.2552C67.9512 87.2552 62.1243 87.2379 61.6835 87.2713C61.2504 87.3061 61.1303 87.7559 61.1303 87.7559L60.736 88.9124C60.736 88.9124 57.5355 85.7213 57.2338 85.4953C56.9397 85.2706 56.6612 85.6323 56.6612 85.6323L53.8073 89.6183L53.4361 89.335L53.065 89.0516L56.2901 85.3489C56.2901 85.3489 56.575 84.9959 56.2809 84.7712C55.9868 84.5465 52.033 82.3055 52.033 82.3055L53.0796 81.6398C53.0796 81.6398 53.4938 81.4146 53.4223 80.9978L53.4429 81.0164Z" fill="white"/><path d="M50.6493 56.2413L23.611 30.1741L14.2262 65.4793L50.6493 56.2413Z" fill="#662C91"/><path d="M48.4244 54.3064L45.1662 57.4297L38.7348 58.9926L46.0219 51.9978L48.4244 54.3064Z" fill="white"/><path d="M41.7637 47.9464L26.74 62.3589L20.2714 63.932L39.3502 45.6347L41.7637 47.9464Z" fill="white"/><path d="M35.1038 41.2605L15.9172 59.6386L17.5708 53.4005L32.6756 38.9388L35.1038 41.2605Z" fill="white"/><path d="M28.4469 34.3605L21.0654 41.4216L22.722 35.1857L26.0175 32.036L28.4469 34.3605Z" fill="white"/><path d="M176.359 131.419C164.256 127.287 152.509 121.816 141.046 116.194C113.849 102.846 87.9664 86.6838 64.1834 67.9053C40.0084 48.8185 18.1566 26.6786 0.18327 1.63335C-0.52517 0.647597 1.00534 -0.45235 1.71378 0.5334C40.027 53.9259 95.6921 94.0216 155.24 120.791C162.418 124.018 169.692 127.169 177.15 129.71C178.299 130.104 177.5 131.812 176.366 131.42L176.359 131.419Z" fill="#B268E8"/></svg>