<svg width="170" height="259" fill="none" xmlns="http://www.w3.org/2000/svg"><path fill-rule="evenodd" clip-rule="evenodd" d="M125.444 172.78L128.354 176.021C129.86 177.68 130.115 180.028 129.017 181.993L126.899 185.821C126.669 186.23 126.746 186.689 127.052 187.046C127.359 187.378 127.818 187.48 128.252 187.302L132.259 185.541C134.3 184.647 136.623 185.107 138.129 186.74L141.089 189.905C141.395 190.237 141.855 190.339 142.288 190.16C142.697 189.981 142.952 189.573 142.901 189.114L142.518 184.775C142.314 182.555 143.462 180.513 145.479 179.543L149.383 177.706C149.792 177.502 150.021 177.093 149.97 176.634C149.919 176.174 149.613 175.817 149.154 175.715L144.943 174.745C142.748 174.26 141.191 172.55 140.885 170.305L140.323 165.991C140.272 165.532 139.941 165.2 139.481 165.098C139.047 164.996 138.588 165.2 138.358 165.583L136.138 169.335C134.989 171.274 132.871 172.219 130.676 171.81L126.363 171.019C125.904 170.943 125.495 171.147 125.266 171.53C125.036 171.938 125.087 172.397 125.393 172.755L125.444 172.78Z" fill="#932CDE"/><path fill-rule="evenodd" clip-rule="evenodd" d="M144.483 93.3068L147.393 96.548C148.899 98.2069 149.154 100.555 148.056 102.52L145.938 106.348C145.708 106.757 145.785 107.216 146.091 107.573C146.397 107.905 146.857 108.007 147.291 107.828L151.298 106.067C153.339 105.174 155.662 105.634 157.167 107.267L160.128 110.432C160.434 110.763 160.894 110.865 161.327 110.687C161.736 110.508 161.991 110.1 161.94 109.64L161.557 105.276C161.353 103.056 162.501 101.014 164.518 100.044L168.422 98.2069C168.831 98.0027 169.06 97.5944 169.009 97.135C168.958 96.6756 168.652 96.3183 168.193 96.2162L163.982 95.2464C161.787 94.7615 160.23 93.0516 159.924 90.8057L159.362 86.4926C159.311 86.0332 158.979 85.7015 158.52 85.5994C158.086 85.4973 157.627 85.7015 157.397 86.0843L155.202 89.8359C154.054 91.7755 151.936 92.7198 149.741 92.3115L145.428 91.5203C144.968 91.4438 144.56 91.6479 144.33 92.0307C144.101 92.4391 144.152 92.8985 144.458 93.2558L144.483 93.3068Z" fill="#932CDE"/><path fill-rule="evenodd" clip-rule="evenodd" d="M118.732 184.086C118.732 184.902 119.345 185.566 120.162 185.592C120.978 185.592 121.642 184.979 121.667 184.162C121.795 179.594 121.233 175.051 119.983 170.662C118.732 166.297 116.844 162.137 114.317 158.309C110.795 153.001 106.227 148.56 100.97 145.242C95.6867 141.925 89.7402 139.704 83.4365 138.811C82.6453 138.709 81.9052 139.27 81.7776 140.062C81.6755 140.853 82.237 141.593 83.0281 141.72C88.9236 142.537 94.4872 144.604 99.4128 147.718C104.338 150.832 108.6 154.966 111.867 159.917C114.241 163.49 116.002 167.395 117.176 171.453C118.324 175.511 118.86 179.773 118.732 184.06V184.086Z" fill="#662C91"/><path fill-rule="evenodd" clip-rule="evenodd" d="M131.849 98.0792C132.538 97.6453 132.742 96.7521 132.308 96.063C131.874 95.3739 130.981 95.1697 130.292 95.6036C126.694 97.9005 122.763 99.636 118.654 100.733C114.571 101.831 110.309 102.29 106.021 102.112C100.075 101.831 94.3327 100.3 89.1519 97.6708C83.9711 95.0421 79.3262 91.316 75.6001 86.6967C75.0897 86.0587 74.1709 85.9566 73.5584 86.467C72.9204 86.9774 72.8183 87.8962 73.3287 88.5342C77.3355 93.5109 82.2867 97.4922 87.8248 100.3C93.3629 103.107 99.5135 104.766 105.894 105.072C110.488 105.276 115.03 104.791 119.42 103.617C123.784 102.443 127.995 100.606 131.849 98.1302V98.0792Z" fill="#662C91"/><path fill-rule="evenodd" clip-rule="evenodd" d="M71.1867 104.536L20.6035 65.7947L38.545 42.3917L89.1281 81.133C91.3995 82.894 91.8589 86.1607 90.0979 88.4576L78.5113 103.592C76.7503 105.863 73.4836 106.323 71.1867 104.562V104.536Z" fill="#662C91"/><path fill-rule="evenodd" clip-rule="evenodd" d="M12.5115 40.0438L39.8193 38.0021C40.2531 37.9766 40.6104 38.1808 40.8146 38.5381C41.0188 38.9209 40.9933 39.3292 40.7125 39.6865L18.5601 68.6021C18.3049 68.9339 17.8965 69.087 17.4882 68.985C17.0798 68.8829 16.7736 68.5766 16.697 68.1683L11.5672 41.2689C11.5162 40.9626 11.5672 40.6819 11.7714 40.4267C11.9501 40.1714 12.2053 40.0438 12.537 40.0183L12.5115 40.0438Z" fill="#932CDE"/><path fill-rule="evenodd" clip-rule="evenodd" d="M74.3489 152.235L15.3438 128.296L26.4455 100.963L85.3231 125.03C87.9773 126.101 89.2533 129.138 88.1814 131.793L81.1631 149.326C80.6272 150.653 79.6829 151.623 78.3558 152.184C77.0287 152.746 75.676 152.771 74.3489 152.21V152.235Z" fill="#662C91"/><path fill-rule="evenodd" clip-rule="evenodd" d="M0.721924 105.582L26.4984 96.3948C26.9067 96.2417 27.3151 96.3438 27.5958 96.65C27.9021 96.9563 27.9786 97.3901 27.8 97.773L20.8837 114.617L14.0951 131.512C13.9419 131.895 13.5846 132.15 13.1508 132.176C12.7169 132.176 12.3596 131.971 12.181 131.589L0.109419 107.037C-0.0181871 106.756 -0.0437138 106.476 0.0838926 106.169C0.211499 105.889 0.415673 105.685 0.696407 105.582H0.721924Z" fill="#932CDE"/><path fill-rule="evenodd" clip-rule="evenodd" d="M105.741 203.533L108.651 206.774C110.156 208.433 110.412 210.781 109.314 212.746L107.196 216.574C106.966 216.983 107.043 217.442 107.349 217.799C107.655 218.131 108.115 218.233 108.549 218.055L112.555 216.294C114.623 215.4 116.92 215.86 118.425 217.493L121.386 220.658C121.692 220.99 122.151 221.092 122.585 220.913C122.994 220.734 123.249 220.326 123.198 219.867L122.815 215.502C122.611 213.257 123.759 211.24 125.775 210.271L129.68 208.433C130.088 208.229 130.318 207.821 130.267 207.361C130.216 206.902 129.91 206.545 129.45 206.442L125.239 205.473C123.045 204.988 121.488 203.278 121.182 201.032L120.62 196.719C120.569 196.259 120.237 195.928 119.778 195.826C119.344 195.723 118.885 195.928 118.655 196.31L116.46 200.062C115.312 202.002 113.193 202.946 110.999 202.538L106.685 201.747C106.226 201.67 105.818 201.874 105.588 202.257C105.358 202.665 105.409 203.125 105.716 203.456L105.741 203.533Z" fill="#932CDE"/><path fill-rule="evenodd" clip-rule="evenodd" d="M112.964 114.055L115.873 117.297C117.379 118.955 117.634 121.303 116.537 123.269L114.419 127.097C114.189 127.505 114.265 127.964 114.572 128.322C114.878 128.653 115.337 128.756 115.771 128.577L119.778 126.816C121.82 125.923 124.142 126.382 125.648 128.015L128.608 131.18C128.915 131.512 129.374 131.614 129.808 131.435C130.216 131.257 130.471 130.848 130.42 130.389L130.038 126.05C129.833 123.83 130.982 121.788 132.998 120.818L136.903 118.981C137.311 118.777 137.541 118.368 137.49 117.909C137.439 117.45 137.132 117.092 136.673 116.99L132.462 116.02C130.267 115.536 128.71 113.826 128.404 111.58L127.843 107.267C127.792 106.807 127.46 106.476 127.001 106.373C126.567 106.271 126.107 106.476 125.878 106.858L123.683 110.61C122.534 112.55 120.416 113.494 118.221 113.086L113.908 112.294C113.449 112.218 113.04 112.422 112.811 112.805C112.581 113.213 112.632 113.673 112.938 114.03L112.964 114.055Z" fill="#932CDE"/><path fill-rule="evenodd" clip-rule="evenodd" d="M85.5791 177.323L88.4885 180.564C89.9943 182.223 90.2495 184.571 89.1521 186.536L87.0338 190.364C86.8041 190.772 86.8807 191.232 87.1869 191.589C87.4932 191.921 87.9525 192.023 88.3864 191.844L92.3932 190.083C94.4349 189.19 96.7574 189.65 98.2631 191.283L101.224 194.448C101.53 194.779 101.989 194.881 102.423 194.703C102.831 194.524 103.087 194.116 103.036 193.656L102.653 189.318C102.449 187.097 103.597 185.056 105.613 184.086L109.518 182.248C109.926 182.044 110.156 181.636 110.105 181.176C110.054 180.717 109.748 180.36 109.288 180.258L105.077 179.288C102.882 178.803 101.326 177.068 101.019 174.847L100.458 170.534C100.407 170.075 100.075 169.743 99.6158 169.641C99.1819 169.539 98.7225 169.743 98.4928 170.126L96.298 173.877C95.1495 175.817 93.0313 176.761 90.8364 176.353L86.5234 175.562C86.064 175.485 85.6301 175.689 85.426 176.072C85.1963 176.481 85.2473 176.94 85.5535 177.297L85.5791 177.323Z" fill="#932CDE"/><path fill-rule="evenodd" clip-rule="evenodd" d="M117.788 72.7111L120.697 75.9523C122.203 77.6112 122.458 79.9591 121.361 81.9243L119.243 85.7525C119.013 86.1608 119.09 86.6202 119.396 86.9775C119.702 87.3093 120.162 87.4114 120.595 87.2327L124.602 85.4717C126.644 84.5785 128.966 85.0379 130.472 86.6712L133.433 89.8359C133.739 90.1677 134.198 90.2697 134.632 90.0911C135.04 89.9124 135.296 89.5041 135.245 89.0447L134.862 84.6806C134.658 82.4602 135.806 80.4185 137.822 79.4487L141.727 77.6112C142.135 77.407 142.365 76.9987 142.314 76.5393C142.263 76.0799 141.957 75.7226 141.497 75.6205L137.286 74.6507C135.091 74.1658 133.535 72.4559 133.228 70.21L132.667 65.8969C132.616 65.4375 132.284 65.1058 131.825 65.0037C131.391 64.9016 130.932 65.1058 130.702 65.4886L128.507 69.2402C127.359 71.1798 125.24 72.1241 123.045 71.7158L118.732 70.9246C118.273 70.8481 117.839 71.0522 117.635 71.435C117.405 71.8434 117.456 72.3028 117.763 72.6601L117.788 72.7111Z" fill="#932CDE"/><path fill-rule="evenodd" clip-rule="evenodd" d="M29.534 54.0805L38.543 42.3917L44.566 47.0111L24.9657 69.138L20.6016 65.8202L29.534 54.0805Z" fill="#40185E"/><path fill-rule="evenodd" clip-rule="evenodd" d="M15.3438 128.296L20.8308 114.617L26.4455 100.963L29.6867 102.29L27.8747 133.375L15.3438 128.296Z" fill="#40185E"/></svg>