<svg width="155" height="259" viewBox="0 0 155 259" fill="none" xmlns="http://www.w3.org/2000/svg">
<path fill-rule="evenodd" clip-rule="evenodd" d="M60.0659 114.319L67.2912 162.036L74.5165 209.737H60.0659H45.6152L52.8406 162.036L60.0659 114.319Z" fill="#950C95"/>
<path fill-rule="evenodd" clip-rule="evenodd" d="M115.283 146.666L120.056 178.194L124.843 209.737H115.283H105.736L110.509 178.194L115.283 146.666Z" fill="#570557"/>
<path fill-rule="evenodd" clip-rule="evenodd" d="M60.0651 90.0161L90.0903 134.915L120.13 179.8H60.0651H0L30.0252 134.915L60.0651 90.0161Z" fill="#CA0ECA"/>
<path fill-rule="evenodd" clip-rule="evenodd" d="M115.283 130.594L135.134 160.269L155 189.944H115.283H75.5801L95.4315 160.269L115.283 130.594Z" fill="#950C95"/>
<path fill-rule="evenodd" clip-rule="evenodd" d="M60.0637 64.3406L84.6299 101.08L109.211 137.82H60.0637H10.9023L35.4831 101.08L60.0637 64.3406Z" fill="#CA0ECA"/>
<path fill-rule="evenodd" clip-rule="evenodd" d="M115.285 113.619L131.531 137.908L147.777 162.196H115.285H82.793L99.039 137.908L115.285 113.619Z" fill="#950C95"/>
<path fill-rule="evenodd" clip-rule="evenodd" d="M60.065 49.2625L74.2821 70.5297L88.5138 91.797H60.065H31.6016L45.8333 70.5297L60.065 49.2625Z" fill="#CA0ECA"/>
<path fill-rule="evenodd" clip-rule="evenodd" d="M115.283 103.664L124.698 117.72L134.098 131.777H115.283H96.4824L105.883 117.72L115.283 103.664Z" fill="#950C95"/>
<path fill-rule="evenodd" clip-rule="evenodd" d="M41.6874 91.7971L35.4839 101.081L35.3379 101.299H50.0805H70.034H84.7766L84.6453 101.081L78.4271 91.7971H63.6845H60.0645H56.4446H41.6874Z" fill="#950C95"/>
<path fill-rule="evenodd" clip-rule="evenodd" d="M103.14 131.777L99.0387 137.908L98.9512 138.054H108.687H121.882H131.633L131.531 137.908L127.429 131.777H117.679H115.285H112.891H103.14Z" fill="#570557"/>
<path fill-rule="evenodd" clip-rule="evenodd" d="M28.0841 137.82L21.793 147.206H54.4602H65.6558H98.323L92.0465 137.82H64.2399H60.0653H55.8907H28.0841Z" fill="#950C95"/>
<path fill-rule="evenodd" clip-rule="evenodd" d="M94.1483 162.196L89.9883 168.4H111.591H118.992H140.58L136.435 162.196H118.043H115.284H112.525H94.1483Z" fill="#570557"/>
</svg>
