<svg width="188" height="259" viewBox="0 0 188 259" fill="none" xmlns="http://www.w3.org/2000/svg">
<path fill-rule="evenodd" clip-rule="evenodd" d="M52.9663 104.062L79.4589 143.649L105.933 183.236H52.9663H0L26.4736 143.649L52.9663 104.062Z" fill="#CA0ECA"/>
<path fill-rule="evenodd" clip-rule="evenodd" d="M115.819 75.5549L151.909 129.49L187.999 183.445H115.819H43.6387L79.7287 129.49L115.819 75.5549Z" fill="#950C95"/>
<path fill-rule="evenodd" clip-rule="evenodd" d="M36.584 128.54L37.5912 137.263L47.8158 127.837L54.5055 148.476L61.1761 131.182L72.1989 139.031L69.5952 128.92L52.9661 104.062L36.584 128.54Z" fill="#E3C0E3"/>
<path fill-rule="evenodd" clip-rule="evenodd" d="M115.82 75.5549L135.072 104.328L127.052 101.097L129.199 118.392L119.564 106.21L109.947 127.837L107.382 108.357L94.0215 118.791L97.1193 103.492L115.82 75.5549Z" fill="#E3C0E3"/>
</svg>
