<svg width="385" height="282" viewBox="0 0 385 282" fill="none" xmlns="http://www.w3.org/2000/svg">
<path d="M90.0947 112.517L112.296 130.173L112.934 125.072L99.4804 103.098L90.0947 112.517Z" fill="#DABBBE"/>
<path d="M117.895 95.7997L49.8601 136.532C46.6605 138.447 42.5473 136.452 42.0717 132.754L25.9272 6.79069C25.4003 2.67927 29.6911 -0.345822 33.3926 1.52797L156.098 63.6943C159.728 65.533 159.909 70.6438 156.421 72.7355L117.898 95.8003" fill="#E7C5C6"/>
<path d="M41.2132 20.5701L98.7511 107.249L111.998 129.809C113.026 131.399 115.485 130.752 115.596 128.865L117.515 96.0113L41.2132 20.5701Z" fill="white"/>
<path d="M212.396 217.807C212.411 217.816 212.425 217.824 212.442 217.834C213.467 218.342 214.534 218.818 215.612 219.251C216.039 219.423 216.524 219.214 216.695 218.788C216.866 218.361 216.66 217.878 216.231 217.705C215.194 217.288 214.166 216.829 213.181 216.34C212.77 216.136 212.268 216.306 212.064 216.717C211.869 217.114 212.017 217.593 212.395 217.81L212.396 217.807ZM205.197 213.285C205.551 213.488 206.011 213.407 206.27 213.075C206.552 212.712 206.487 212.188 206.124 211.905C205.255 211.23 204.396 210.506 203.568 209.755C203.226 209.447 202.699 209.471 202.391 209.812C202.082 210.154 202.107 210.68 202.449 210.989C203.309 211.768 204.2 212.52 205.105 213.222C205.136 213.246 205.168 213.268 205.202 213.287L205.197 213.285ZM223.656 221.643C223.731 221.686 223.813 221.717 223.901 221.736C225.012 221.967 226.159 222.169 227.307 222.335C227.763 222.401 228.185 222.084 228.251 221.628C228.317 221.173 228.002 220.752 227.544 220.684C226.428 220.523 225.316 220.327 224.24 220.103C223.79 220.01 223.349 220.298 223.255 220.747C223.179 221.107 223.352 221.465 223.655 221.64L223.656 221.643ZM196.824 204.835C197.109 204.998 197.475 204.984 197.749 204.77C198.113 204.489 198.18 203.964 197.898 203.601C197.223 202.729 196.56 201.814 195.93 200.885C195.67 200.505 195.152 200.403 194.773 200.662C194.391 200.92 194.291 201.439 194.551 201.819C195.199 202.777 195.882 203.72 196.581 204.621C196.65 204.709 196.733 204.782 196.824 204.835ZM235.498 222.871C235.619 222.94 235.756 222.981 235.903 222.982C237.032 222.996 238.19 222.983 239.348 222.943C239.808 222.929 240.167 222.543 240.152 222.083C240.138 221.623 239.751 221.264 239.291 221.278C238.16 221.317 237.026 221.328 235.921 221.315C235.46 221.309 235.084 221.679 235.08 222.138C235.077 222.45 235.245 222.726 235.498 222.871ZM154.412 174.616C154.81 174.844 155.32 174.708 155.55 174.309C155.779 173.909 155.642 173.401 155.242 173.171C154.278 172.617 153.309 172.029 152.356 171.427C151.971 171.183 151.454 171.296 151.207 171.686C150.961 172.076 151.076 172.59 151.466 172.837C152.439 173.453 153.429 174.051 154.411 174.618L154.412 174.616ZM162.013 178.456C162.039 178.472 162.066 178.487 162.095 178.497C162.718 178.769 163.356 179.036 163.988 179.29C164.42 179.465 164.855 179.634 165.29 179.798C165.721 179.962 166.203 179.743 166.363 179.313C166.527 178.882 166.31 178.402 165.877 178.24C165.453 178.079 165.032 177.914 164.61 177.745C163.991 177.495 163.37 177.238 162.76 176.971C162.338 176.786 161.847 176.981 161.664 177.401C161.493 177.793 161.649 178.247 162.013 178.456ZM190.585 194.696C190.816 194.829 191.106 194.848 191.364 194.724C191.777 194.523 191.952 194.024 191.75 193.611C191.268 192.614 190.802 191.584 190.367 190.546C190.188 190.12 189.701 189.92 189.275 190.098C188.849 190.276 188.649 190.763 188.827 191.189C189.274 192.252 189.752 193.312 190.247 194.336C190.324 194.492 190.443 194.614 190.583 194.695L190.585 194.696ZM144.526 167.963C144.883 168.168 145.342 168.083 145.6 167.751C145.88 167.387 145.811 166.864 145.448 166.581C144.571 165.905 143.683 165.196 142.806 164.475C142.448 164.183 141.926 164.232 141.632 164.588C141.339 164.942 141.39 165.467 141.744 165.76C142.635 166.496 143.538 167.217 144.43 167.902C144.461 167.926 144.491 167.946 144.525 167.966L144.526 167.963ZM173.308 182.236C173.376 182.275 173.451 182.305 173.53 182.325C174.641 182.589 175.777 182.831 176.904 183.04C177.356 183.123 177.792 182.827 177.876 182.375C177.959 181.923 177.662 181.487 177.21 181.403C176.11 181.197 175.001 180.964 173.917 180.703C173.469 180.596 173.018 180.872 172.912 181.32C172.826 181.687 172.995 182.056 173.308 182.236ZM135.495 160.179C135.821 160.366 136.244 160.315 136.513 160.031C136.83 159.697 136.818 159.171 136.485 158.852C135.687 158.093 134.872 157.298 134.062 156.487C133.736 156.162 133.208 156.16 132.883 156.486C132.558 156.811 132.557 157.339 132.883 157.664C133.703 158.484 134.528 159.291 135.337 160.059C135.386 160.107 135.44 160.147 135.495 160.179ZM247.391 222.136C247.543 222.223 247.724 222.264 247.911 222.24C249.021 222.099 250.164 221.933 251.311 221.75C251.766 221.678 252.075 221.251 252.003 220.796C251.931 220.341 251.503 220.032 251.049 220.104C249.919 220.284 248.795 220.445 247.701 220.586C247.245 220.644 246.922 221.06 246.981 221.516C247.015 221.786 247.175 222.009 247.392 222.134L247.391 222.136ZM127.199 151.613C127.503 151.787 127.898 151.758 128.172 151.509C128.513 151.199 128.542 150.675 128.232 150.333C127.496 149.517 126.74 148.663 125.983 147.793C125.68 147.445 125.153 147.409 124.807 147.709C124.461 148.01 124.425 148.537 124.724 148.885C125.487 149.762 126.251 150.624 126.993 151.447C127.054 151.514 127.122 151.569 127.197 151.612L127.199 151.613ZM185.093 183.988C185.201 184.05 185.323 184.088 185.456 184.097C186.598 184.167 187.758 184.213 188.901 184.226C189.363 184.231 189.74 183.865 189.745 183.404C189.751 182.943 189.384 182.566 188.922 182.56C188.483 182.554 188.041 182.543 187.6 182.53C187.311 181.477 187.041 180.406 186.801 179.34C186.7 178.891 186.253 178.609 185.804 178.71C185.355 178.811 185.073 179.257 185.174 179.706C185.38 180.621 185.607 181.542 185.851 182.451C185.754 182.446 185.656 182.438 185.559 182.434C185.098 182.406 184.704 182.756 184.675 183.213C184.654 183.541 184.828 183.836 185.093 183.988ZM119.466 142.535C119.758 142.702 120.131 142.683 120.406 142.46C120.765 142.17 120.819 141.647 120.528 141.288C119.814 140.406 119.104 139.522 118.401 138.637C118.115 138.275 117.591 138.217 117.228 138.502C116.868 138.788 116.809 139.311 117.094 139.673C117.801 140.563 118.514 141.453 119.232 142.339C119.297 142.421 119.378 142.487 119.465 142.537L119.466 142.535ZM259.125 220.03C259.299 220.13 259.511 220.168 259.721 220.119C260.779 219.885 261.869 219.633 263.051 219.355C263.499 219.251 263.776 218.801 263.669 218.352C263.564 217.905 263.114 217.627 262.665 217.734C261.489 218.013 260.408 218.26 259.357 218.494C258.908 218.595 258.625 219.038 258.725 219.489C258.777 219.727 258.926 219.919 259.124 220.032L259.125 220.03ZM197 183.713C197.147 183.797 197.322 183.837 197.507 183.818C198.645 183.694 199.794 183.541 200.923 183.36C201.378 183.288 201.688 182.861 201.615 182.406C201.543 181.952 201.115 181.642 200.661 181.714C199.556 181.89 198.435 182.04 197.324 182.16C196.866 182.211 196.537 182.621 196.586 183.078C196.616 183.355 196.777 183.582 197.001 183.71L197 183.713ZM184.193 171.851C184.34 171.936 184.512 171.977 184.696 171.958C185.153 171.91 185.485 171.498 185.437 171.042C185.319 169.936 185.227 168.808 185.159 167.686C185.131 167.228 184.737 166.877 184.278 166.905C183.82 166.933 183.469 167.327 183.497 167.785C183.566 168.932 183.662 170.086 183.781 171.218C183.812 171.494 183.971 171.724 184.196 171.853L184.193 171.851ZM270.712 217.233C270.893 217.337 271.112 217.373 271.329 217.319C272.431 217.042 273.53 216.768 274.633 216.495C275.081 216.384 275.353 215.932 275.241 215.486C275.13 215.038 274.676 214.768 274.231 214.878C273.129 215.151 272.026 215.426 270.924 215.703C270.478 215.815 270.206 216.267 270.319 216.713C270.376 216.941 270.522 217.124 270.712 217.233ZM208.683 181.401C208.873 181.51 209.104 181.543 209.331 181.478C210.434 181.158 211.539 180.803 212.616 180.429C213.049 180.278 213.28 179.802 213.128 179.369C212.977 178.936 212.501 178.704 212.068 178.856C211.017 179.223 209.938 179.567 208.865 179.879C208.423 180.006 208.17 180.469 208.298 180.91C208.36 181.126 208.502 181.297 208.683 181.401ZM183.879 159.951C183.989 160.015 184.114 160.055 184.252 160.06C184.712 160.084 185.103 159.733 185.127 159.273C185.185 158.156 185.266 157.028 185.374 155.914C185.419 155.457 185.083 155.049 184.623 155.006C184.165 154.961 183.758 155.297 183.715 155.756C183.606 156.894 183.522 158.05 183.464 159.188C183.448 159.512 183.618 159.802 183.883 159.954L183.879 159.951ZM282.309 214.462C282.483 214.562 282.692 214.599 282.902 214.552C284.041 214.304 285.157 214.074 286.222 213.866C286.674 213.777 286.967 213.34 286.879 212.889C286.789 212.437 286.352 212.145 285.901 212.231C284.829 212.442 283.699 212.673 282.548 212.925C282.098 213.022 281.814 213.467 281.911 213.916C281.964 214.155 282.114 214.35 282.312 214.463L282.309 214.462ZM219.757 177.035C219.993 177.171 220.291 177.188 220.55 177.055C221.577 176.534 222.597 175.98 223.583 175.407C223.982 175.175 224.117 174.667 223.885 174.267C223.655 173.87 223.143 173.735 222.745 173.965C221.785 174.521 220.791 175.062 219.795 175.568C219.384 175.777 219.221 176.279 219.431 176.688C219.508 176.838 219.623 176.955 219.758 177.033L219.757 177.035ZM294.048 212.416C294.2 212.503 294.379 212.542 294.565 212.52C295.699 212.381 296.83 212.265 297.922 212.172C298.379 212.134 298.72 211.731 298.679 211.272C298.641 210.814 298.237 210.474 297.778 210.514C296.666 210.609 295.517 210.73 294.36 210.869C293.902 210.923 293.578 211.342 293.634 211.797C293.667 212.069 293.827 212.292 294.047 212.418L294.048 212.416ZM185.395 148.139C185.47 148.182 185.554 148.215 185.642 148.233C186.092 148.325 186.533 148.038 186.627 147.585C186.851 146.491 187.104 145.388 187.378 144.302C187.489 143.857 187.22 143.405 186.772 143.292C186.327 143.18 185.873 143.451 185.762 143.896C185.484 145.005 185.224 146.133 184.995 147.25C184.922 147.612 185.094 147.966 185.397 148.141L185.395 148.139ZM229.784 170.627C230.07 170.792 230.441 170.778 230.717 170.559C231.619 169.847 232.509 169.103 233.365 168.343C233.71 168.038 233.74 167.511 233.435 167.166C233.128 166.82 232.603 166.791 232.258 167.095C231.424 167.833 230.558 168.559 229.681 169.249C229.319 169.534 229.257 170.059 229.544 170.419C229.613 170.507 229.692 170.575 229.781 170.626L229.784 170.627ZM305.944 211.926C306.052 211.988 306.175 212.026 306.307 212.035C307.408 212.104 308.535 212.207 309.653 212.343C310.111 212.399 310.526 212.073 310.579 211.617C310.633 211.161 310.308 210.744 309.852 210.69C308.701 210.551 307.545 210.444 306.411 210.376C305.951 210.345 305.558 210.696 305.528 211.155C305.506 211.482 305.68 211.777 305.945 211.93L305.944 211.926ZM317.7 213.815C317.765 213.853 317.836 213.881 317.911 213.901C318.989 214.178 320.079 214.484 321.152 214.815C321.593 214.95 322.058 214.705 322.193 214.263C322.328 213.822 322.082 213.357 321.64 213.222C320.543 212.884 319.426 212.569 318.322 212.287C317.876 212.171 317.422 212.442 317.308 212.886C317.213 213.257 317.385 213.634 317.7 213.815ZM351.289 233.084C351.607 233.266 352.016 233.223 352.29 232.954C352.617 232.63 352.619 232.102 352.296 231.776C351.493 230.966 350.66 230.161 349.814 229.387C349.475 229.077 348.948 229.097 348.635 229.436C348.324 229.776 348.346 230.301 348.685 230.615C349.509 231.373 350.326 232.159 351.11 232.949C351.165 233.003 351.225 233.05 351.288 233.086L351.289 233.084ZM328.955 217.728C328.981 217.743 329.005 217.757 329.035 217.768C330.057 218.22 331.081 218.703 332.083 219.201C332.494 219.406 332.997 219.24 333.201 218.829C333.405 218.418 333.235 217.92 332.827 217.711C331.803 217.2 330.754 216.706 329.709 216.243C329.287 216.056 328.796 216.247 328.609 216.668C328.434 217.061 328.589 217.518 328.955 217.728ZM342.236 225.344C342.602 225.555 343.074 225.458 343.326 225.109C343.595 224.735 343.509 224.215 343.137 223.947C342.209 223.276 341.254 222.622 340.297 221.996C339.911 221.748 339.396 221.853 339.143 222.236C338.891 222.619 339.001 223.137 339.385 223.389C340.319 224 341.254 224.643 342.161 225.295C342.187 225.313 342.209 225.329 342.233 225.343L342.236 225.344ZM188.669 136.693C188.71 136.717 188.75 136.737 188.795 136.753C189.226 136.911 189.706 136.69 189.866 136.26C190.254 135.212 190.666 134.159 191.099 133.126C191.275 132.702 191.074 132.216 190.651 132.037C190.227 131.86 189.738 132.059 189.561 132.483C189.12 133.536 188.696 134.615 188.302 135.686C188.16 136.072 188.323 136.498 188.667 136.696L188.669 136.693ZM238.362 162.382C238.702 162.577 239.144 162.511 239.408 162.202C240.154 161.333 240.886 160.432 241.583 159.526C241.863 159.161 241.795 158.639 241.43 158.359C241.061 158.08 240.542 158.146 240.263 158.511C239.584 159.396 238.872 160.274 238.146 161.118C237.846 161.468 237.887 161.994 238.237 162.294C238.277 162.33 238.321 162.359 238.365 162.384L238.362 162.382ZM193.618 125.867C193.618 125.867 193.628 125.873 193.63 125.874C194.034 126.097 194.541 125.952 194.763 125.548C194.973 125.166 195.189 124.784 195.406 124.406C195.746 123.814 196.098 123.219 196.455 122.636C196.694 122.242 196.572 121.73 196.177 121.491C195.782 121.241 195.273 121.374 195.031 121.767C194.667 122.362 194.309 122.969 193.96 123.576C193.738 123.963 193.517 124.352 193.302 124.744C193.082 125.143 193.224 125.644 193.617 125.87L193.618 125.867ZM245.225 152.662C245.625 152.891 246.133 152.754 246.363 152.355C246.932 151.363 247.484 150.341 248.001 149.319C248.209 148.907 248.036 148.404 247.632 148.198C247.222 147.991 246.721 148.154 246.511 148.565C246.007 149.56 245.47 150.555 244.914 151.523C244.685 151.922 244.822 152.43 245.222 152.66L245.225 152.662ZM200.157 115.919C200.511 116.122 200.972 116.038 201.23 115.706C201.919 114.821 202.633 113.941 203.351 113.092C203.649 112.741 203.604 112.216 203.254 111.915C202.905 111.619 202.379 111.659 202.078 112.011C201.342 112.879 200.612 113.776 199.908 114.684C199.625 115.047 199.692 115.572 200.057 115.852C200.088 115.876 200.12 115.898 200.154 115.917L200.157 115.919ZM250.16 141.833C250.205 141.86 250.252 141.88 250.301 141.899C250.737 142.05 251.212 141.82 251.363 141.385C251.739 140.301 252.089 139.195 252.406 138.097C252.532 137.654 252.278 137.191 251.835 137.064C251.392 136.938 250.932 137.192 250.803 137.634C250.496 138.703 250.153 139.78 249.788 140.835C249.653 141.219 249.819 141.634 250.159 141.83L250.16 141.833ZM208.174 107.117C208.482 107.294 208.884 107.259 209.158 107.004C209.979 106.24 210.825 105.486 211.672 104.766C212.022 104.468 212.065 103.941 211.767 103.591C211.468 103.24 210.942 103.197 210.591 103.495C209.724 104.229 208.858 105 208.019 105.786C207.682 106.098 207.664 106.626 207.98 106.964C208.037 107.026 208.104 107.077 208.174 107.117ZM252.973 130.274C253.062 130.325 253.164 130.361 253.27 130.377C253.725 130.443 254.148 130.125 254.214 129.67C254.376 128.534 254.51 127.381 254.606 126.242C254.645 125.784 254.306 125.381 253.847 125.338C253.388 125.299 252.986 125.638 252.943 126.097C252.848 127.205 252.719 128.328 252.562 129.432C252.514 129.779 252.686 130.109 252.973 130.274ZM217.557 99.7986C217.815 99.9467 218.142 99.9521 218.41 99.786C219.374 99.1903 220.353 98.6352 221.316 98.1414C221.725 97.9313 221.888 97.4295 221.678 97.0204C221.467 96.6113 220.965 96.4478 220.556 96.6578C219.552 97.1729 218.536 97.7482 217.533 98.3666C217.141 98.6088 217.022 99.1231 217.262 99.514C217.336 99.6365 217.439 99.7308 217.554 99.7972L217.557 99.7986ZM253.43 118.388C253.572 118.469 253.737 118.51 253.915 118.497C254.373 118.459 254.713 118.055 254.675 117.598C254.576 116.436 254.429 115.276 254.238 114.151C254.162 113.698 253.731 113.393 253.278 113.469C252.824 113.544 252.519 113.974 252.595 114.428C252.78 115.507 252.921 116.623 253.015 117.736C253.039 118.019 253.203 118.257 253.432 118.389L253.43 118.388ZM228.498 95.2128C228.669 95.3111 228.875 95.3492 229.085 95.3067C230.185 95.0771 231.277 94.9267 232.334 94.8613C232.793 94.8332 233.144 94.4394 233.114 93.9774C233.086 93.5192 232.692 93.1678 232.229 93.1969C231.093 93.2676 229.917 93.4281 228.737 93.6754C228.286 93.7686 227.999 94.2122 228.093 94.663C228.144 94.9036 228.294 95.0989 228.494 95.2138L228.498 95.2128ZM250.583 106.862C250.807 106.99 251.086 107.013 251.34 106.899C251.759 106.711 251.949 106.218 251.758 105.798C251.266 104.702 250.715 103.658 250.117 102.691C249.874 102.298 249.361 102.176 248.969 102.419C248.577 102.661 248.455 103.174 248.698 103.566C249.258 104.471 249.774 105.452 250.235 106.479C250.309 106.647 250.434 106.776 250.581 106.86L250.583 106.862ZM240.199 96.0939C240.23 96.1119 240.259 96.1285 240.293 96.1417C240.369 96.1722 240.441 96.2037 240.515 96.2367C241.433 96.6359 242.318 97.1191 243.146 97.6748C243.533 97.9287 244.045 97.8291 244.303 97.4461C244.558 97.0641 244.457 96.5481 244.074 96.2895C243.162 95.6791 242.187 95.1447 241.179 94.7066C241.096 94.6719 241.017 94.6363 240.935 94.6016C240.51 94.4251 240.021 94.6243 239.845 95.0482C239.68 95.4405 239.839 95.8839 240.198 96.0901L240.199 96.0939Z" fill="#E7C5C6"/>
</svg>
