<svg width="203" height="284" viewBox="0 0 203 284" fill="none" xmlns="http://www.w3.org/2000/svg">
<path d="M68.0931 117.912L28.2155 148.246C27.7869 148.573 27.5352 149.08 27.5352 149.619V182.078C27.5352 183.03 28.3073 183.803 29.2601 183.803H69.1376C70.0901 183.803 70.8625 183.031 70.8625 182.078V119.285C70.8622 117.858 69.2286 117.048 68.0931 117.912Z" fill="#A70DA7"/>
<path d="M81.6816 119.331V182.078C81.6816 183.031 82.4538 183.803 83.4066 183.803H123.284C124.237 183.803 125.009 183.031 125.009 182.078V112.358C125.009 110.924 123.361 110.116 122.228 110.994L96.3759 131.026C95.6104 131.619 94.5069 131.466 93.9317 130.687L84.7942 118.307C83.8059 116.968 81.6816 117.667 81.6816 119.331Z" fill="#A70DA7"/>
<path d="M135.829 100.939V182.078C135.829 183.03 136.601 183.802 137.554 183.802H177.432C178.384 183.802 179.156 183.03 179.156 182.078V68.9446C179.156 67.4973 177.481 66.6934 176.353 67.5993L136.475 99.5933C136.066 99.9206 135.829 100.415 135.829 100.939Z" fill="#A70DA7"/>
<path d="M70.864 119.285V182.077C70.864 183.031 70.0891 183.803 69.1387 183.803H62.3301C63.2839 183.803 64.0553 183.031 64.0553 182.077V120.986L68.0949 117.914C69.2284 117.049 70.864 117.859 70.864 119.285Z" fill="#CB26CB"/>
<path d="M125.009 112.358V182.077C125.009 183.031 124.238 183.802 123.284 183.802H116.479C117.429 183.802 118.204 183.031 118.204 182.077V114.115L122.23 110.995C123.363 110.116 125.009 110.922 125.009 112.358Z" fill="#CB26CB"/>
<path d="M179.157 68.9454V182.078C179.157 183.031 178.382 183.803 177.432 183.803H170.623C171.577 183.803 172.348 183.031 172.348 182.078V70.8117L176.35 67.5987C177.48 66.6931 179.157 67.4991 179.157 68.9454Z" fill="#CB26CB"/>
<path d="M158.183 39.4595H135.445C133.671 39.4595 132.234 40.8891 132.234 42.6528V46.5886C132.234 48.3524 133.671 49.782 135.445 49.782H145.653L97.0421 92.1397L78.6574 74.3423C77.2336 72.9186 75.8098 72.9186 74.5111 73.8472L22.6786 118.284C21.1878 119.244 20.7539 121.225 21.7094 122.707L25.9772 127.023C27.0643 128.411 28.0915 128.166 29.4881 127.073C46.0322 113.033 59.9732 100.269 76.5217 86.4446L95.031 104.954C96.4548 106.378 97.8786 107.09 99.8668 105.578L152.993 57.0813V67.2337C152.993 68.9974 154.431 70.427 156.204 70.427H160.162C161.935 70.427 163.373 68.9974 163.373 67.2337V44.6206C163.373 41.7703 161.049 39.4595 158.183 39.4595Z" fill="#DF13DF"/>
</svg>
