<svg width="203" height="284" viewBox="0 0 203 284" fill="none" xmlns="http://www.w3.org/2000/svg">
<path fill-rule="evenodd" clip-rule="evenodd" d="M102.086 196.068L172.063 195.981C181.434 195.972 186.612 189.211 186.612 182.083V92.5231C186.612 86.891 182.004 82.2804 176.373 82.2804H27.8001C22.1692 82.2804 17.5703 86.891 17.5703 92.5231V182.083C17.5703 189.211 22.7376 195.972 32.1193 195.981L102.086 196.068Z" fill="#A70DA7"/>
<path fill-rule="evenodd" clip-rule="evenodd" d="M173.694 79.7541V176.231H102.087V75.3766C102.829 74.9481 103.683 74.5286 104.656 74.1272C110.951 71.5196 122.124 69.5451 138.606 69.079C151.371 69.4337 158.661 70.3893 165.545 72.3469C171.629 74.0728 173.694 74.6244 173.694 79.7541Z" fill="#ECEFF1"/>
<path fill-rule="evenodd" clip-rule="evenodd" d="M112.074 120.697L104.656 161.951L102.088 176.231H30.4883V79.7541C30.4883 74.6244 32.5534 74.0728 38.627 72.3469C45.5215 70.3893 52.8006 69.4324 65.5758 69.079C82.0553 69.5451 93.2212 71.5157 99.5162 74.1233C100.49 74.5286 101.347 74.9468 102.088 75.3766L104.656 87.0306L112.074 120.697Z" fill="#ECEFF1"/>
<path fill-rule="evenodd" clip-rule="evenodd" d="M35.7822 183.077H102.086L106.049 179.114L102.086 176.229C90.8062 169.68 52.9738 165.891 30.4893 176.229V177.638C30.4893 180.627 32.8716 183.077 35.7822 183.077Z" fill="#90A4AE"/>
<path fill-rule="evenodd" clip-rule="evenodd" d="M173.693 176.229C151.199 165.891 113.376 169.68 102.086 176.229V183.077H168.39C171.302 183.077 173.692 180.627 173.692 177.638V176.229H173.693Z" fill="#90A4AE"/>
<path fill-rule="evenodd" clip-rule="evenodd" d="M127.838 97.6637L135.861 102.428L143.891 97.6637H144.508C144.508 83.7569 157.967 81.9623 157.949 67.0042C157.929 52.749 146.9 45.7367 135.861 45.9011C124.831 45.7367 113.801 52.749 113.781 67.0042C113.762 81.9623 127.221 83.7569 127.221 97.6637H127.838Z" fill="#DF13DF"/>
<path fill-rule="evenodd" clip-rule="evenodd" d="M149.608 67.0038C149.628 81.962 136.169 83.7565 136.169 97.6633H144.508C144.508 83.7565 157.967 81.962 157.948 67.0038C157.93 52.7487 146.9 45.7363 135.86 45.9008C134.472 45.8723 133.073 45.9681 131.694 46.1804C141.182 47.637 149.599 54.5613 149.608 67.0038Z" fill="#B210B2"/>
<path fill-rule="evenodd" clip-rule="evenodd" d="M163.521 82.2808V172.699C167.127 173.625 170.558 174.782 173.693 176.229V79.7534C173.693 74.6224 171.629 74.0734 165.545 72.3462C164.881 72.1533 164.205 71.9707 163.521 71.7972V82.2808Z" fill="#C4CCCF"/>
<path fill-rule="evenodd" clip-rule="evenodd" d="M173.693 176.229C170.558 174.783 167.127 173.625 163.521 172.699V183.077H168.39C171.302 183.077 173.692 180.627 173.692 177.638V176.229H173.693Z" fill="#7C8C94"/>
<path fill-rule="evenodd" clip-rule="evenodd" d="M173.693 177.637C173.693 180.627 171.302 183.076 168.39 183.076H163.521V195.99L172.063 195.981C181.434 195.972 186.612 189.211 186.612 182.083V92.5231C186.612 86.891 182.004 82.2804 176.373 82.2804H173.693V177.637Z" fill="#CB26CB"/>
<path d="M43.6709 134.632C42.6986 134.632 41.7676 134.076 41.3339 133.134C40.7396 131.843 41.3054 130.315 42.595 129.721C51.5455 125.601 62.7839 125.329 68.6854 125.533C77.5375 125.84 85.5442 127.488 89.5799 129.833C90.8087 130.547 91.2256 132.121 90.5122 133.35C89.8 134.58 88.2269 134.997 86.9982 134.283C80.8055 130.685 58.1902 128.208 44.743 134.396C44.396 134.556 44.0309 134.632 43.6709 134.632Z" fill="#37474F"/>
<path d="M43.6709 153.514C42.6986 153.514 41.7676 152.959 41.3339 152.016C40.7396 150.725 41.3054 149.197 42.595 148.603C51.5455 144.483 62.7839 144.211 68.6854 144.416C77.5375 144.724 85.5442 146.371 89.5799 148.716C90.8087 149.429 91.2256 151.004 90.5122 152.232C89.8 153.462 88.2269 153.879 86.9982 153.166C80.8055 149.569 58.1902 147.09 44.743 153.278C44.396 153.439 44.0309 153.514 43.6709 153.514Z" fill="#37474F"/>
<path d="M43.6711 115.747C42.6988 115.747 41.7679 115.192 41.3341 114.249C40.7399 112.96 41.3044 111.431 42.5939 110.836C51.5432 106.711 62.7829 106.439 68.6869 106.645C77.5365 106.953 85.5419 108.602 89.5802 110.948C90.8089 111.661 91.2258 113.237 90.5124 114.466C89.8003 115.694 88.2272 116.111 86.9985 115.399C80.8005 111.797 58.1813 109.316 44.7445 115.51C44.3962 115.671 44.0311 115.747 43.6711 115.747Z" fill="#37474F"/>
<path d="M160.501 134.632C160.142 134.632 159.776 134.557 159.428 134.396C145.982 128.202 123.374 130.683 117.184 134.284C115.958 134.997 114.383 134.581 113.67 133.351C112.957 132.124 113.372 130.548 114.601 129.834C118.632 127.489 126.637 125.841 135.492 125.534C141.393 125.328 152.633 125.602 161.578 129.721C162.868 130.315 163.432 131.843 162.838 133.134C162.406 134.076 161.475 134.632 160.501 134.632Z" fill="#37474F"/>
<path d="M160.501 153.514C160.142 153.514 159.776 153.439 159.428 153.278C145.982 147.084 123.374 149.565 117.184 153.166C115.958 153.879 114.383 153.463 113.67 152.235C112.957 151.006 113.372 149.432 114.601 148.717C118.632 146.371 126.637 144.723 135.492 144.416C141.393 144.211 152.633 144.484 161.578 148.603C162.868 149.197 163.432 150.725 162.838 152.017C162.406 152.959 161.475 153.514 160.501 153.514Z" fill="#37474F"/>
<path d="M104.656 74.1277V176.231C104.656 177.65 103.506 178.805 102.087 178.805C100.665 178.805 99.5156 177.651 99.5156 176.231V74.1238C100.488 74.529 101.346 74.9472 102.087 75.3771C102.829 74.9485 103.682 74.529 104.656 74.1277Z" fill="#90A4AE"/>
<path d="M142.464 72.1193H128.996C127.576 72.1193 126.425 73.2716 126.425 74.6932C126.425 76.1135 127.576 77.2659 128.996 77.2659H133.29V97.6659C133.29 99.0862 134.441 100.239 135.861 100.239C137.28 100.239 138.431 99.0862 138.431 97.6659V77.2659H142.464C143.884 77.2659 145.035 76.1135 145.035 74.6932C145.035 73.2716 143.884 72.1193 142.464 72.1193Z" fill="#ECEFF1"/>
<path d="M135.879 38.2623C134.46 38.2623 133.309 37.1099 133.309 35.6896V28.9375C133.309 27.5172 134.46 26.3649 135.879 26.3649C137.299 26.3649 138.45 27.5172 138.45 28.9375V35.6896C138.45 37.1099 137.299 38.2623 135.879 38.2623Z" fill="#DF13DF"/>
<path d="M114.002 44.2803C113.345 44.2803 112.687 44.0291 112.185 43.5267L107.403 38.7439C106.398 37.7392 106.398 36.1091 107.402 35.1044C108.407 34.0997 110.034 34.0997 111.037 35.1031L115.82 39.8872C116.825 40.8919 116.825 42.5207 115.822 43.5267C115.319 44.0291 114.661 44.2803 114.002 44.2803Z" fill="#DF13DF"/>
<path d="M157.757 44.2795C157.099 44.2795 156.441 44.0296 155.94 43.5273C154.935 42.5239 154.934 40.8938 155.936 39.8891L160.709 35.105C161.712 34.099 163.34 34.0977 164.344 35.1011C165.349 36.1058 165.35 37.7346 164.348 38.7406L159.576 43.5247C159.073 44.0283 158.414 44.2795 157.757 44.2795Z" fill="#DF13DF"/>
<path d="M43.6709 96.8518C42.6986 96.8518 41.7676 96.2964 41.3339 95.3538C40.7396 94.063 41.3054 92.5352 42.595 91.9409C51.543 87.8223 62.7839 87.553 68.6867 87.7576C77.5336 88.0657 85.539 89.7113 89.5773 92.0522C90.8061 92.7643 91.2256 94.3387 90.5134 95.5675C89.8026 96.7988 88.2282 97.217 87.0008 96.5048C80.799 92.9106 58.1759 90.4338 44.743 96.6162C44.396 96.7767 44.0309 96.8518 43.6709 96.8518Z" fill="#37474F"/>
<path fill-rule="evenodd" clip-rule="evenodd" d="M135.861 97.6656H127.839C124.359 97.6656 121.524 100.511 121.524 103.983C121.524 107.455 124.359 110.291 127.839 110.291H143.892C147.364 110.291 150.207 107.455 150.207 103.983C150.207 100.511 147.364 97.6656 143.892 97.6656H135.861Z" fill="#C4CCCF"/>
<path fill-rule="evenodd" clip-rule="evenodd" d="M150.207 103.983C150.207 100.511 147.362 97.6656 143.891 97.6656H135.552C137.432 97.6656 139.129 98.4956 140.285 99.8072C141.269 100.926 141.868 102.382 141.868 103.983C141.868 107.455 139.032 110.291 135.552 110.291H143.891C147.362 110.291 150.207 107.455 150.207 103.983Z" fill="#90A4AE"/>
</svg>
