<svg width="134" height="259" viewBox="0 0 134 259" fill="none" xmlns="http://www.w3.org/2000/svg">
<path d="M78.6704 239.569L77.7343 239.405C85.1061 198.79 70.6784 173.141 55.2796 150.358C46.3983 137.218 51.1373 113.242 51.3362 112.224L52.2606 112.411C52.2138 112.657 47.3929 137.007 56.0518 149.82C71.5677 172.766 86.089 198.591 78.6587 239.569H78.6704Z" fill="#662C91"/>
<path d="M49.2188 118.601C49.2188 118.601 49.3709 114.155 51.3484 113.944C53.3259 113.733 54.0397 116.881 54.2503 118.554C53.7705 120.239 49.7219 119.584 49.2188 118.601Z" fill="#6906B1"/>
<path d="M88.6872 56.9472C88.9095 82.6549 61.6222 115.348 51.3602 115.43C40.6068 115.524 13.2258 83.3218 13.0035 57.6142C12.8163 36.7158 29.6076 19.6202 50.5177 19.433C71.4162 19.2458 88.5117 36.0488 88.6989 56.9472H88.6872Z" fill="#460774"/>
<path d="M25.8622 76.9799C43.3439 94.6605 71.1461 88.6226 81.4432 69.1868C87.5746 57.6026 87.4342 49.8447 86.3226 44.0877C80.9283 29.5781 66.8868 19.2927 50.5168 19.4331C32.8362 19.5852 18.1043 31.8481 14.0908 48.265C14.0674 48.5224 12.5462 63.5 25.8739 76.9799H25.8622Z" fill="#6906B1"/>
<path d="M59.8784 66.3107C60.1816 66.0596 70.5541 57.3761 70.5541 57.3761L67.6969 54.7637L69.0933 48.3301L62.2212 49.7339L60.935 46.3126L55.3307 53.3505L57.9583 41.1713L53.2543 42.3706L50.1306 35.2584L47.1907 42.445L42.4592 41.3573L45.39 53.4714L39.6111 46.5822L38.4076 50.0314L31.5079 48.8042L33.0605 55.2006L30.2676 57.8875C30.2676 57.8875 40.8514 66.3106 41.1638 66.5524C41.4762 66.7941 39.6662 71.2009 39.6662 71.2009L49.8642 68.793L49.4967 76.9837H50.5808L50.6911 76.9651H51.7752L51.2056 68.7744L61.4587 70.922C61.4587 70.922 59.5385 66.5617 59.8509 66.3107H59.8784Z" fill="#D6AFF0"/>
<path d="M79.4187 236.269L78.5879 235.813C82.0281 229.588 88.8733 206.489 83.9354 191.336C79.0091 176.23 83.912 168.203 84.1226 167.863L84.93 168.367C84.8832 168.449 80.0623 176.394 84.8481 191.044C89.8796 206.466 82.9174 229.95 79.4304 236.269H79.4187Z" fill="#662C91"/>
<path d="M80.5664 173.655C80.5664 173.655 81.7248 169.361 83.7023 169.607C85.6799 169.853 85.6565 173.082 85.4809 174.755C84.6267 176.288 80.8355 174.72 80.5664 173.655Z" fill="#6906B1"/>
<path d="M133.069 122.626C127.429 147.702 93.3903 173.304 83.3741 171.046C72.8897 168.682 53.5827 131.075 59.2227 105.999C63.8096 85.6036 84.0644 72.8024 104.46 77.3893C124.855 81.9762 137.656 102.231 133.069 122.626Z" fill="#460774"/>
<path d="M67.3325 127.798C80.3092 149.001 108.767 149.469 123.218 132.9C131.83 123.024 133.456 115.442 133.702 109.579C131.76 94.2156 120.445 81.0049 104.461 77.4009C87.213 73.5161 70.0706 82.0814 62.418 97.1643C62.3361 97.4101 57.445 111.65 67.3325 127.81V127.798Z" fill="#6906B1"/>
<path d="M115.237 151.95C123.557 143.419 130.73 132.97 133.07 122.615C133.363 121.292 133.585 119.982 133.737 118.671C130.028 123.644 119.497 132.549 93.8826 125.75C59.8671 116.717 63.7051 95.0815 63.7753 94.6837C63.0732 95.8421 62.4297 97.0356 61.8563 98.2759C60.9202 100.406 59.9724 103.132 59.1767 106.198C57.1875 115.266 58.4395 125.949 61.3415 136.001C69.8483 149.715 96.4335 162.235 115.237 151.938V151.95Z" fill="#FBF9FD"/>
<path d="M62.7559 96.4865C62.7559 96.4865 62.7795 96.4392 62.7913 96.4155C62.7795 96.4392 62.7677 96.4628 62.7559 96.4865Z" fill="#F9F4F4"/>
<path d="M94.2542 146.942C94.4297 146.86 100.351 144.122 100.351 144.122L99.3326 142.554L100.772 139.745L97.3785 139.546L97.1912 137.803L93.7043 140.365L96.4307 135.053L94.0787 135.03L93.4819 131.356L91.2236 134.316L89.1408 133.228L89.0355 139.195L87.175 135.287L86.1921 136.738L83.1029 135.322L83.0444 138.47L81.4062 139.371C81.4062 139.371 85.3379 144.578 85.4549 144.73C85.5719 144.882 84.1794 146.696 84.1794 146.696L89.2578 146.836L88.0877 150.581L88.6025 150.709H88.6493L89.1642 150.85L89.9014 146.988L94.4414 149.258C94.4414 149.258 94.0787 147 94.2542 146.93V146.942Z" fill="#6906B1"/>
</svg>
